<svg xmlns="http://www.w3.org/2000/svg" viewBox="0 0 40.66 79.97"><defs><style>.cls-1{fill:#97d6ff;stroke:#fff;stroke-miterlimit:10;stroke-width:0.25px;}</style></defs><title>Icon_argentina</title><g id="Capa_2" data-name="Capa 2"><g id="Objects"><path class="cls-1" d="M15.4,78.39c-1.12,0-3.3-2.09-4-2.63s-.18-1.07-1-.93-.27-.63.18-.85-.16-1-.71-1.09c-.06,1.2-.31,6.57,0,6.62s2.69-.27,3.38.18c.27.09.64.3.92,0,.44-.49,1.78-.23,2.5-.67S16.51,78.44,15.4,78.39ZM40.1,8a4.14,4.14,0,0,0-1.32-.08,1.27,1.27,0,0,0,0,.2c.12.85-.43,3-1,3s-1.09.9-1.57.78-1.15.73-1.75.36S33,12.34,32.51,12s-1.87-.06-1.87-.42.66-.24.66-1.33S33.11,8,32.87,7.57,29.55,6.24,29.13,5.7A2.92,2.92,0,0,0,26.9,4.55c-1.21-.12-1.15-.72-2.24-1.39A10.81,10.81,0,0,1,21.87.3c-.73-.07-1.78-.23-2,0s-.78,2-1.19,1.19S17.27.68,16.38.56s-.83-.95-1.79.06a8.51,8.51,0,0,1-1.47,1.22,8,8,0,0,1-.41,2.35c-.24.42-2.23,1.33-2.29,1.81s.24,1.14-.12,1.45.84,1.81.18,2.17.48,1,.06,1.33-1.21.54-1.21,1-.06,1.45-.6,1.69a2.14,2.14,0,0,0-.91,1.81c0,.67-.84.24-.54,1.09s.66,1.87,0,2.05-.48,1.57-.85,1.57-.54,1.45,0,2.17a3,3,0,0,1,.67,2c0,.66.72,1,.48,1.75S7.46,27.43,7,27.73s-.06,1.2-.61,1.45.43,2.17,0,2.53-1.5.67-1.5,2A18.34,18.34,0,0,1,5,36.36c-.13.48.6.36.48,1.15s-1.09.3-1.15.78.24,1.45-.12,1.51-.54.42-.54,1.27-.48,1-.54,1.38.42.91.42,1.39S3.84,46,3.42,46s-.67,1.88-.3,2.12a.83.83,0,0,1,.18,1.08c-.18.37.84.73.3,1.27a.6.6,0,0,0,.6,1c.61-.18,1,.9.3.9s-1.32,0-.78.43,1.08,1,.3,1.32-.12.85-.3,1.57.54,1.39-.06,1.57.24,1.27-.61,1.39-.3.9-.84,1.33.72,1.15.06,1.57S2.09,63,1.43,63,.4,63.88.34,64.3s-.48,1.27.06,1.87S.28,67.26.76,67.5s2.11-.12,1.87.61-.18,2.29.12,2.29.49.9,1,.84a13.7,13.7,0,0,1,3.56-.06,2.64,2.64,0,0,1,1.08.63c.52-.23,1.65.51,1.91.25S9.16,70.59,9.2,70.19,9,69.12,9,68.67s-.23-1.42.4-1.87.67-.89,1.07-.8,1.2-.36,1.25-1.43.53-1.47,1.42-2.23,2.59-1.6,2.37-2,.35-1.51.35-2-1.51-.36-2-.54-2.28-1.42-1.39-3.07a4,4,0,0,1,3.3-1.88c.54,0,.05-.8.49-1.07s.54-.71.54-1.38,0-2,.8-2,1-.53.54-.67-.72-.71.09-.8.53.67,1.11.67,1.56-1,.8-1.56-1,.27-1.38.36-.71-.54-1.11-.54-.14-1.11-.32-1.52-.44-1.38-.09-1.87,1.88.76,3.22.85,2.31-.67,2.31-1.16-.62-1.38.18-1.92.14-.71-.09-1.42.36-1.16.72-.81,3,.14,5.17-.31,3.7-1.25,3.83-1.87,1.52-2.1,1.83-2.63,0-1.21-.85-1.34-.84-1.16-.35-1.74S32.92,29,32.07,29s-2.18-.67-1.42-1.38c.36-.35.54-.28.72-.12.12-.34.25-.75.15-.85s-.63,0-.59-1.22.5-1,.54-2.62.68-2.57.68-3.43,1.54-1.85,2.39-3.25A15.25,15.25,0,0,1,38,12.42c.77-.5,2.26-.91,2.44-1.36S40.46,8.17,40.1,8Z"/></g></g></svg>