<svg xmlns="http://www.w3.org/2000/svg" viewBox="0 0 24.66 27.63"><defs><style>.cls-1{fill:#9013fe;stroke:#fff;stroke-miterlimit:10;stroke-width:0.25px;}</style></defs><title>Icon_bolivia_1</title><g id="Capa_2" data-name="Capa 2"><g id="Objects"><path class="cls-1" d="M24.46,16.59c-.3-.89-1.19-1-1.19-2s-.36-1.07-1.66-1-2.15-.24-2.2-1-.84-1.37-.24-1.66-.42-.84-.3-1.55-.36-1-.77-1.37-2.2.18-2.2-.47-1.07-.78-1.67-.78-.17-.77-.83-.71-.53-.42-1.43-.3S10.55,5.48,9.6,4.35A5.26,5.26,0,0,1,8.94.42C9.12-.17,7.81.31,7,.31A5.54,5.54,0,0,0,4.66,1.38c-.83.47-1.3.47-1.72.89a1.65,1.65,0,0,1-1.72.41,4.65,4.65,0,0,0-.68-.15c.35.87,1.2,2.31,1.39,2.83s-.3.83-.54,1.07.12,2.38.18,2.85S.74,10.65,1.09,11,.62,12.14.62,12.67s.77.54.77.95A2.85,2.85,0,0,1,.32,15.23c-.22.12-.22.46-.17.82.13,0,.21.5.83,1s-.12,1.43.47,2.14,1.25.77.83,1.13.06,1.07-.41,1.43.18,1.42.71,1.66.18,1.31.72,1.84.29,1.79.47,2.2,1.78-.59,2.74-1.6.89-.18,1.78-.06,1.9.12,2.32.95.89-.83,1.19-1.19,2.31.12,2.67,0,.66-2.67.6-3.09.83-1.43,1.54-1.9,1.84-.12,2.44-.42a5.63,5.63,0,0,1,2.32-.24c.83,0,1.42.84,1.9.84s1.07-.78.95-1.49S24.76,17.49,24.46,16.59Z"/></g></g></svg>