<svg xmlns="http://www.w3.org/2000/svg" viewBox="0 0 79.71 82.16"><defs><style>.cls-1{fill:#97d6ff;stroke:#fff;stroke-miterlimit:10;stroke-width:0.25px;}</style></defs><title>Icon_brasil</title><g id="Capa_2" data-name="Capa 2"><g id="Objects"><path class="cls-1" d="M42.4,81c1.25-.89.94-1.43,1.52-2.49S44,77,45,76s-.18-1.56,1.07-2.14,1.07.54,0,1.83-1.2,1.65.13.67,1.83-2.36,2.59-3.92,1.34-2,2-2.14.67-1.74.58-2.9-.45-2.23,0-3,0-1.47.63-1.47,1.56-.94,2.54-1.92a3.44,3.44,0,0,1,2.63-1.16c1-.09.44-.44,1.11-.62a4.09,4.09,0,0,0,1.56-1.21c.45-.4,2.28,0,3.35,0s1.78.09,1.78-.58a1.16,1.16,0,0,1,1.11-1.21c.63,0,.9-.17.9-1.06a2,2,0,0,1,.8-1.83c.53-.4.62-1.29.8-1.88s.76-.22.76-1.07.31-1.78.31-2.45.71-.58,1-1.07-.27-1.11.22-2.49,0-2.68,0-3.93,0-2.54.45-2.94.22-.63-.14-.8,0-.67.36-.58.67.75,1.25.4,1.11-1.87,1.6-3.12S75.8,32.3,76.42,32a8.22,8.22,0,0,0,2.81-4c.85-2.19,0-4.33-.4-5.84S78,21,77.09,21.07s-2.59-.18-4.82-2.59a5.45,5.45,0,0,0-5.88-1.83c-1.47.41-3-.71-4-.93s-1.92,1-2.63,1.29.36-1.07.4-1.92S57.51,13,55.46,12.24s-2.94-.4-2.94.89-.8-.4-1.43,1-1.78.49-1,.05a4.55,4.55,0,0,0,1.74-2.32c.27-.85-2.94-1.52-4.06-1.07s-.4,2.05-1.29,1.56-.18-1.7.53-1.65,1.52-1.43,2-2.5S48.15,6.93,47.35,6s-.63-3.45-1.44-3.86a10.33,10.33,0,0,0-2.38,3.21c-.42,1.26-1,.54-2.11.9a1.53,1.53,0,0,1-2-.6c-.31-.49-1.45,0-2.24-.06s-.3,1-.84,1.27-1.93-.61-2.42-.07-.78,0-1,.49-1.09.18-1.33.48-1.09.48-2.17-.72S28.5,3.88,29,3.51a1,1,0,0,0-.18-1.69c-.66-.3,0-1.56-.84-1.69s-.73,1-1.27,1.15-1.87,1.09-2.48,1-1.38.12-1.38.78S22.16,3.51,22,3s-1.39-.24-1.75-.6-2.05-.18-1.33.24a1.41,1.41,0,0,1,.79,1.51c0,.66.54.48.54,1.27s.61.24,1,.24.42.72-.24.84a1.34,1.34,0,0,0-1.15,1.09c-.18.6-.78.18-1.33.66s-1,1-1.39.73-.66-.06-1.08.18-.61,0-1.21-.48c-.45-.37-.74-1.24-1.54-2a6.21,6.21,0,0,1-2,.57c-.71,0-2.92-.16-3,.22A1,1,0,0,0,8.9,8.52c.36.08,1.13.3.4.82s-1.36-.18-1.36,1.09,1.62,2.09,1.28,3.26a15.38,15.38,0,0,0-.41,2.74c0,.59-.24,2.62-.77,2.73s-1-.47-1.73.12-1.6.24-2.43.9-1.73.41-1.79,1.18-.83,1.19-.65,1.91-.36.53-.89,1.07.06.89-.3,1.31.12,1.06.54,1.72.89,1.13.83,1.72.41.84,1,.77S2.75,31,3.7,31s1.9.24,2.14-.29.89-.95.89-.18-.18,2.85.48,2.62a4.92,4.92,0,0,1,2.61,0,1.66,1.66,0,0,0,1.73-.41c.41-.42.89-.42,1.72-.89a5.49,5.49,0,0,1,2.38-1.07c.77,0,2.08-.48,1.9.12a5.23,5.23,0,0,0,.65,3.92c1,1.13,1.49,1.54,2.38,1.43s.78.35,1.43.29.24.72.83.72,1.67.12,1.67.77,1.78.12,2.2.48.89.65.77,1.36.89,1.25.3,1.55.17.89.23,1.66.89,1.07,2.2,1,1.67.06,1.67,1,.89,1.06,1.19,2-.36,1.9-.24,2.61a1.47,1.47,0,0,1-.61,1.37c.45.58.49.85.08,1.07s.67,1.15.36,2.48-.36,1.57,1,1.63,1.27.48,1.75.18,1.21,1,1.39,1.69.72,2.23,1,2.23,1-.72,1.7-.36-.17,2.6-.19,3.6a4.16,4.16,0,0,1,1.32.08c.36.18.54,2.62.36,3.07s-1.67.86-2.44,1.36a15.25,15.25,0,0,0-3.48,3.66,16.26,16.26,0,0,1-1.77,2.11,1.14,1.14,0,0,0,.6,0c.4-.18,1-.18,1.71.63s.64,1.44.91,1.4.59-1.08,1.13-.32,1.94,1.36,2.26,1.72,1.35.63,1.35,1.58a6.25,6.25,0,0,0,.21,3A4.61,4.61,0,0,1,42.4,81Z"/></g></g></svg>