<svg xmlns="http://www.w3.org/2000/svg" viewBox="0 0 18.46 90.75"><defs><style>.cls-1{fill:#97d6ff;stroke:#fff;stroke-miterlimit:10;stroke-width:0.25px;}</style></defs><title>Icon_chile</title><g id="Capa_2" data-name="Capa 2"><g id="Objects"><path class="cls-1" d="M8,80.51c-.48.07-.66-.84-1-.84s-.37-1.57-.12-2.29S5.55,77,5.06,76.77s.19-.72-.36-1.33S4.58,74,4.64,73.57s.42-1.32,1.09-1.32.18-1,.84-1.39-.6-1.15-.06-1.57,0-1.21.85-1.33,0-1.21.6-1.39S7.84,65.73,8,65s-.48-1.26.3-1.57.25-.9-.3-1.32.12-.43.79-.43.3-1.08-.3-.9a.6.6,0,0,1-.61-1c.54-.54-.48-.9-.3-1.27a.83.83,0,0,0-.18-1.08c-.36-.24-.12-2,.3-2.11s.12-1.69.12-2.18-.48-1-.42-1.39S8,51.18,8,50.34s.18-1.21.55-1.27.06-1,.12-1.51,1,0,1.14-.78-.6-.67-.48-1.15A18.34,18.34,0,0,0,9.23,43c0-1.32,1.09-1.63,1.51-2s-.54-2.29,0-2.53.18-1.15.6-1.45.3-1,.54-1.69-.48-1.09-.48-1.75a3.07,3.07,0,0,0-.66-2c-.55-.72-.36-2.17,0-2.17s.18-1.39.84-1.57.3-1.2,0-2.05.55-.42.55-1.09a2.17,2.17,0,0,1,.9-1.81c.55-.24.61-1.26.61-1.69s.78-.6,1.2-1-.72-1-.06-1.33-.54-1.87-.18-2.17.06-1,.12-1.45,2-1.39,2.3-1.81a8.33,8.33,0,0,0,.41-2.35c-.63.4-1.17.62-1.27.39-.17-.42.06-1.67-.47-2.21s-.18-1.6-.71-1.84-1.19-1.31-.72-1.66,0-1.07.42-1.43-.24-.42-.83-1.13.23-1.6-.48-2.14S12.66-.1,12.48.2s-.24,1.31-.83,1.6a2.84,2.84,0,0,0-.44.32,5.78,5.78,0,0,0,0,1.81,16.08,16.08,0,0,1,.13,5.17,23.55,23.55,0,0,1-.8,3c-.27.76.63.81.27,1.16s-.22,1.25-.22,2.68-.85,3.83-.9,4.59-.62,1.25-.53,2.1a1.91,1.91,0,0,1-.89,1.74c-.49.4.8,1.69.76,2.4s-1,1-.76,2.19a22.59,22.59,0,0,1,0,4.41c0,.49-.58.45-.45,1.38s-.58,1.16-.71,2.5a19.59,19.59,0,0,1-1.56,4.28c-.4,1-.4,1.61-.94,1.61s-.67.58-.27,1.47-.26,1.65.27,2.54.36,1.2.09,2-.62.89-.62,1.69-.63,1.48-.27,2.37.27,1.2-.18,1.2-.67.72-.85,2.19S2.67,58.1,3.74,58,4,54.4,4.63,54.4s.09-.58.76-.76.09.63.53.76.76.49.14.89.13,1.21-.18,1.7-.76,1-.49,1.6-.31.54-.36,1.3.4.8.09,1,.4.76,0,.84-.18.67.09,1.21-.58.22-1,.58.45.84.18,1.34-1-.27-1.29-.54.49-.8.89-1.34-.4-1.74-1.07-1.47.67,1,.67,1.61S2.4,63,2.45,63.59s-.76.4-1.16.84.53.85.09,1-1.21.75-1.25,1.2.49.53.49.09.71-.58.93,0,.54,0,1.16.13.54,1.07.18,1-.71.58-.62,1.25,1.34,0,1.87.17.36,1.12.05.81-1-.85-1.34-.31-.8.26-1.21.08S-.18,70.63.31,71s.44.93.75.89a1.41,1.41,0,0,0,1-.62c.17-.36.8-.72.84.08s-.84.41-1,.85A3,3,0,0,1,.8,73.4a.48.48,0,0,0,.44.84c.45-.22-.13.54.49.63s.76-.36.63-.81.31-1.42.84-.93-.26,1-.26,1.43-.32,1-.32,1.51-.57.22-.53.76-1.25.18-.67.54-.36.84,0,1.2.58-.49,1.07-.31.4.31,1,0,1,.49.4.67-1.2.85-.93.94,1-.45,1.2.13.62.4.67-.22,1.11-.09,1.29.44S5,81.11,4.32,81s-1,.62-.58,1.2,1,0,1.47-.49,2.9-.36,3.08.18S7.17,82,7,82.27s-1.12.58-1.25.22-1.07.14-1.11.72-.76.57,0,.8.58-.85,1.83-.76,1.92-1.16,2.27-.45-1,1.3-1.51.85-1.07.31-1,1-1.43-.18-2.14-.27-.4.67.22,1.34,1-.09,1.74.4.76,1,1.3.54,0-.45-.36-.67,0-1,.8-.58A1.16,1.16,0,0,0,9.4,84c-.27-1.07.76-1.56,1.79-1.91s.49.66-.27,1-.89.53-.31,1.16,1.33-.41,1.82.09-.89.4-1.11.89.85,1.07.09,1.42-.4-1.47-.85-1.65-.85.23-.4,1.25-.54.14-1-.35-1.07.22-.54.75-1,0-1,.81.67.13,1.47.31.45,1.34,1,1.78.08-1.42.71-1.56,0,1.43,1.43,1.87.08-.26.71-.71,1.43,1.34,2.09,1.52.23-.81-.26-1.34.49-.22,1.16,0,1.2.31,1.33-.18c.05-.18.18-.18.34-.13-.7-.45-3.07-.12-3.39-.18s-.07-5.39,0-6.62a.8.8,0,0,0-.15,0c-.58,0-1.87.14-1.65-.75a.42.42,0,0,1,.24-.3,2.75,2.75,0,0,0-1.09-.63A13.73,13.73,0,0,0,8,80.51Z"/></g></g></svg>