<svg xmlns="http://www.w3.org/2000/svg" viewBox="0 0 24.22 34.13"><defs><style>.cls-1{fill:#97d6ff;stroke:#fff;stroke-miterlimit:10;stroke-width:0.25px;}</style></defs><title>Icon_colombia</title><g id="Capa_2" data-name="Capa 2"><g id="Objects"><path class="cls-1" d="M3.87,24.74a1.44,1.44,0,0,0,1.53,0c.19-.23.7.28,1.44,1.12l.09.1a3.11,3.11,0,0,1,1.73-.05c.56.35.42,1.61,1.19,1.68s1.33.84,1.26,1.26.84.63.77,1.26,2,.49,2.31.28a1.2,1.2,0,0,1,1.19-.14c.35.21,1-.21,1.33-.07s1.75.7,1.47,1.19-1.26,1.26-1.05,1.68.9.53,1.2,1h.09c.54-.12.78-2.14.78-2.73a14.52,14.52,0,0,1,.41-2.74c.34-1.17-1.29-2-1.29-3.26s.64-.57,1.37-1.09,0-.74-.4-.82a1,1,0,0,1-.53-1.11c.12-.38,2.34-.22,3-.22a5.91,5.91,0,0,0,2.25-.74.93.93,0,0,0-.36-1c-.54-.42-.34-1,.08-1.51s-.26-1-.78-1.54-.12-2.7.48-3.68-1.23-.77-2.35-.63a3,3,0,0,1-2.82-1.22c-.72-.93-1.71-.34-3.44-.3s-1.38-1.91-1.3-2.66-.89-.84-.89-1.32-.5-.49-.94-.45,0-.54.3-.92.28-.69.3-1.49S13.52,3,14.1,2.26a1.12,1.12,0,0,1,.61-.39.59.59,0,0,1,.49-.39c.89-.18,1.34-.76.49-1.25s-1.34.93-2.27,1.07-1.12.71-1.74,1-1.79.05-1.83.58-.4,0-.94-.13S7,3.84,7,4.51s.27,1.29-.71,1.92a9.14,9.14,0,0,0-2,2.31.33.33,0,0,1-.44.11,1.06,1.06,0,0,1-.28.63,18.12,18.12,0,0,0-1.35,1.31c.25.24.48.46.64.63.63.67.23,1.2.4,1.56s.36.89,0,1.11,0,2.68.36,3.13,0,.84-.44,1.73-.85,1.3-1.65,1.34-.76,1.29-1,1.29-.37.46-.4.84a7.09,7.09,0,0,0,2.48,1.39C3,23.81,3.31,24.42,3.87,24.74Z"/></g></g></svg>