<svg xmlns="http://www.w3.org/2000/svg" viewBox="0 0 17.93 8.11"><defs><style>.cls-1{fill:#97d6ff;stroke:#fff;stroke-miterlimit:10;stroke-width:0.25px;}</style></defs><title>Icon_costa rica y panama</title><g id="Capa_2" data-name="Capa 2"><g id="Objects"><path class="cls-1" d="M6.32,4.41a1.66,1.66,0,0,1,.31-1.27,26.62,26.62,0,0,1-2-2.48,1.48,1.48,0,0,1-1-.11C3.2.22,2.1.44,1.65.22A2.47,2.47,0,0,0,.55.15.69.69,0,0,1,.39.94,1.08,1.08,0,0,0,.93,2.68c1,.4.67-.22,1.16-.22s.44.75.89.75,1.47.54,1.43,1.25.35,1,1.15,1l.49,0C6.19,5.05,6.39,4.66,6.32,4.41Z"/><path class="cls-1" d="M16.53,4.42c-.71-1.07-2-1-2.81-1.34s-1.82.13-2.85,1.07-2.32.4-3.21-.09a5.1,5.1,0,0,1-1-.92,1.66,1.66,0,0,0-.31,1.27c.07.25-.13.64-.27,1.11A4.31,4.31,0,0,1,8.64,6.69c.67.8,1.07.27,1.47,1s1.34,0,1.56-.4-.49-.62-.58-1.11.9-.32,1.07-1,1.61-1,2.23-.72,1.16.72.58,1.38c-.43.5.45,1.4,1.19,2.1a18.75,18.75,0,0,1,1.35-1.32A1.06,1.06,0,0,0,17.79,6,5.46,5.46,0,0,1,16.53,4.42Z"/></g></g></svg>