<?xml version="1.0" encoding="UTF-8" standalone="no"?>
<!DOCTYPE svg PUBLIC "-//W3C//DTD SVG 1.1//EN" "http://www.w3.org/Graphics/SVG/1.1/DTD/svg11.dtd">
<svg version="1.1" xmlns="http://www.w3.org/2000/svg" xmlns:xlink="http://www.w3.org/1999/xlink" preserveAspectRatio="xMidYMid meet" viewBox="0 0 200 200" width="200" height="200"><defs><path d="M152.67 38.91C145.82 43.06 137.23 43.06 130.38 38.91C122.22 34.1 118.14 25.35 112.02 25.35C98.74 21.07 86.45 14.18 75.88 5.07C75.73 6.38 75.73 7.7 75.88 9.01C76.6 14.85 66.84 18.79 55.77 19.51C44.69 20.24 46 32.5 46 40.95C46 49.41 36.97 49.41 33.03 58.46C29.1 67.5 34.34 69.54 25.16 74.06C18.35 76.26 14.6 83.58 16.8 90.4C17.23 91.76 17.9 93.04 18.75 94.19C23.85 102.07 18.02 108.78 16.71 113.74C15.4 118.69 24.58 120.3 33.62 128.32C42.65 136.34 44.11 124.97 48.19 131.53C50.76 138.56 47.16 146.36 40.13 148.93C38.56 149.51 36.89 149.79 35.22 149.76C34.45 149.62 33.66 149.62 32.89 149.76C38.28 155.3 41.05 161.14 38.57 164.35C33.76 171.2 29.68 171.2 38.57 178.93C47.46 186.66 53.14 174.85 60.87 185.06C68.59 195.27 74.42 201.39 81.85 183.75C89.28 166.1 94.82 141.01 108.37 136.93C121.92 132.84 149.61 127.45 165.93 105.71C182.25 83.98 173.51 82.81 182.11 76.54C190.71 70.27 184.59 67.21 173.66 55.1C162.87 43 155.44 35.56 152.67 38.91Z" id="cTdJxkN2H"></path></defs><g><g><g><use xlink:href="#cTdJxkN2H" opacity="1" fill="#97d6ff" fill-opacity="1"></use><g><use xlink:href="#cTdJxkN2H" opacity="1" fill-opacity="0" stroke="#ffffff" stroke-width="0.25" stroke-opacity="1"></use></g></g></g></g></svg>