<svg xmlns="http://www.w3.org/2000/svg" viewBox="0 0 9.23 8.63"><defs><style>.cls-1{fill:#9013fe;stroke:#fff;stroke-miterlimit:10;stroke-width:0.25px;}</style></defs><title>Icon_guatemala</title><g id="Capa_2" data-name="Capa 2"><g id="Objects"><path class="cls-1" d="M7.66,5.68A7.54,7.54,0,0,0,8.75,4.56c-.7.38-.91,0-.81-.48l-1,.13L7,.15c-.82,0-3.09,0-3.38,0S3.23,1.5,3,1.63,4.69,3,4.48,3.57s-2.45.26-2.67.3A17,17,0,0,0,.17,6a26.29,26.29,0,0,0,2.2,1.88c.85.54,2.23,0,2.81.5l.06,0A8.32,8.32,0,0,1,6.67,7.27C7.1,7.14,6.76,6.41,7.66,5.68Z"/></g></g></svg>