<svg xmlns="http://www.w3.org/2000/svg" viewBox="0 0 12.71 6.76"><defs><style>.cls-1{fill:#9013fe;stroke:#fff;stroke-miterlimit:10;stroke-width:0.25px;}</style></defs><title>Icon_honduras</title><g id="Capa_2" data-name="Capa 2"><g id="Objects"><path class="cls-1" d="M5.46,5.86c.08-.17-.52-1.16.64-1.25s2-.21,2.2-.94,1.55-.39,1.94-.43,1.34-1,2.34-1c0-1-1.31-.66-2.23-1.58S7.23.18,6.07.62,3.57.13,2.33.85l-.05,0A8,8,0,0,1,1.2,2C.36,2.67.59,3.34.28,3.54A3.92,3.92,0,0,1,1.15,4c1,.64,1.86.09,2.2.56a2.54,2.54,0,0,1,0,1.31c.18-.14.31-.24.6,0s.21.49.18.76l.75-.18A3.49,3.49,0,0,0,5.46,5.86Z"/></g></g></svg>