<svg xmlns="http://www.w3.org/2000/svg" viewBox="0 0 38.82 16.03"><defs><style>.cls-1{fill:#97d6ff;stroke:#fff;stroke-miterlimit:10;stroke-width:0.25px;}</style></defs><title>Icon_islas</title><g id="Capa_2" data-name="Capa 2"><g id="Objects"><path class="cls-1" d="M23,11.21c-.89.63,1.34,2,1.34,2.77s-3.58-.15-3.93.71c-.17.45,1.25,1.07,2.59.63a3.27,3.27,0,0,1,2.79.36c.1-1.35.26-2.87.4-3.91C25,11.48,23.63,10.76,23,11.21Z"/><path class="cls-1" d="M17,8.72c-1.34,0-5.71-3-9.72-3.93s-7.52,2-7.14,2.5c.54.71,2.5-.89,3.48-1.6s1.87.35,2,.8,1.34.71,3.39.8,2.32,1.78,4.28,2.23,0,1.25,1,1.6,6.15.27,6.51-.17S18.34,8.72,17,8.72Z"/><path class="cls-1" d="M12.46,14.87c.36.62,3.74,1.52,4.1.71S12,14.1,12.46,14.87Z"/><path class="cls-1" d="M35.38,15.05c.8,1.25,3.09.5,3.3,0C39,14.16,34.57,13.8,35.38,15.05Z"/><path class="cls-1" d="M14.17,3.21c-.13.27-.79-.34-.81-.81s-.69-.54-.69-1.35S13-.24,13.41.47s.14,1.16.21,1.51S14.39,2.75,14.17,3.21Z"/></g></g></svg>