<svg xmlns="http://www.w3.org/2000/svg" viewBox="0 0 11.85 13.5"><defs><style>.cls-1{fill:#97d6ff;stroke:#fff;stroke-miterlimit:10;stroke-width:0.25px;}</style></defs><title>Icon_bolivia</title><g id="Capa_2" data-name="Capa 2"><g id="Objects"><path class="cls-1" d="M10.94,3.69C10.2,2.85,9.69,2.34,9.5,2.57A1.44,1.44,0,0,1,8,2.57c-.56-.32-.84-.93-1.26-.93A7.09,7.09,0,0,1,4.23.25a1.31,1.31,0,0,0,0,.28c0,.4-.62.67-1.38.71s-.67.89-.67,1.47-.63.58-.89,1.21S1.38,4.67.75,5A.88.88,0,0,0,.31,6.37c.35.53,0,1-.14,1.34s.54.44,1.16,1,.72-.22,1,.22a.94.94,0,0,1-.89,1.25l-.16,0c.37.39.56.78.39,1-.33.47-.61.47,0,1s1-.28,1.53.42.93,1.11,1.44-.1.89-2.93,1.81-3.2,2.84-.65,4-2.14.52-1.57,1.11-2S11.69,4.53,10.94,3.69Z"/></g></g></svg>