<svg xmlns="http://www.w3.org/2000/svg" viewBox="0 0 269.63 355.15"><defs><style>.cls-1{fill:#f1f1f1;}.cls-2,.cls-3{fill:#9013fe;}.cls-2,.cls-4{stroke:#fff;stroke-miterlimit:10;stroke-width:0.25px;}.cls-4{fill:#97d6ff;}</style></defs><title>Icon_mapa</title><g id="Capa_2" data-name="Capa 2"><g id="Objects"><path class="cls-1" d="M89.64,120.39c-.58-.63-2.09-.49-2.32-1.07s-1.6-2.68-2.36-2.63a3.79,3.79,0,0,1-2.63-.58c-.89-.67-1.47-.72-2.1-.32s.67.49.63.94.4.71.93.62.85,1,1.39,1.07.71.9,1.33.9.76.71,1.07,1.11,1,0,1,.45.71.68.89,1.13a8.48,8.48,0,0,0,3.18,0,2,2,0,0,1,.21-.83C91.2,120.61,90.22,121,89.64,120.39ZM88.12,49.54c1.61.35,1.78,3.21,2.86,3.21.71,0,.18-.89,1.34-.89s.89-.63,2-.54,2-.27,2-1.52.8-1.69,1.87-2,.09-1.6,1.61-2a34.92,34.92,0,0,0,6.42-2.67c.71-.54-.89-1.25-2.5-2.23s-2.85-1.25-4.1-.45-.27-.89-1.25-.44-3.66-.72-4-1.16-5.17,1-6.33,1,.09,1.25.89,1.87-2,2.59-1.43,3-.53,1.61-1.78,3S86.52,49.18,88.12,49.54Zm44.59,7.31c.54-.62,2.77,1.25,2.85-.09s-2.49-2-3.56-2.67-1.52-.36-3.21-1.61.44-1.87-.81-2.85-1.69-3.66-.8-4.55,1.87-2.23.27-2.86-4.19.54-3.92.9,2.49,1.6,2.49,2.14-2-1.52-2.76-1.07-1.52-.89-2.14,0,.8,4,1.34,4.9-.54.89-1.25,1.07-.8-2.5-1.52-3.48-3.56-2.14-3.74-1.42,1.78.71,1.51,1.69-1.33-.62-2.32.18-.8.27-.62-.54-1.43-1.69-3.21-1.51-.8,1.43-1.34,1.87-3.21-.27-1.51-.62,1-1.34.35-2.32-2.32.18-5.08,1.16-4,2-3.66,2.14.45.53-.62,1.42,0,1.7,1,1.7.12.78.8,1,3.84-1.25,4.73-.62-5.26,1-5.26,2.05,3.39,1.69,5.88,1.25,6.87.35,6.87,1-2.94.44-5.17.35-6.07.63-5.89,1.34.45.8,2.77,1.87,4.72-.53,4.63,1,1.25,1.88,4.37,2,4.55-1.43,6.07-1.34,2.23-.18,2.94-1.25,1.34-.45,1.52.09,2.14.44,2.58.89c1.14,1.14,4.91.8,6.33.09s-.62-2.68-1.34-1.78-1.33.35-1.51-.09S132.18,57.47,132.71,56.85ZM98.83,34.91c1.6.18,3.21-1.25,3.12-2S98,34.83,98.83,34.91Zm-7.41-2.49c.63.26,0,1.51.72,1.16s.89-.45,1.42-.27c1,.32,1.16-.54,1.61-1s.27,1.6,1.43,1.6c1,0,.8-2.14,1.69-1.51s1.16-.27,1.34-.9.18-1.69,1.16-1.87.18,1,.62,1.79c.65,1.16,1.79.08,1.87-.45s1.7-.18,1.61-.8.44-.81,0-1.52.71-.53,1.25-1.07-.72-.09-1.61-.89-1.25.27-1.25.8-1.69.09-2.67-.27S98.38,28.4,97,29.12s-1.51,2-2.85,1.87S90.8,32.15,91.42,32.42ZM105.33,32c-1.24.09-1.15,1.34.27,1.34s1.88.44-.18.35-2.94,1.7-1.51,1.34,3.12-.35,2,0-4,.6-3.57,1.16c.27.36,1.43.27,2.59.71s1.87.72,2.76-.26,2.05-2,1.61-.63,1.42.36,3.83.27-.44,1.43-2.94,1.61-2,1.42-.09,1.87,6.15-1.25,7.13-2.23,1.88.53,2.86-.18,2.85.09,4.55-.27,2-3.56.71-4.1-1.25.63-2.23.8-1.52-1.07-2.32-1.87-.27-2.32-1.43-2.14-3.65,2.05-2.14,2.23,1,1,.18,1.34,1.88,1,1.52,1.51-4.46.09-4.64-.8-3.39-2.5-4.72-2.14-.81-1.07-2.14-1.16S106.58,31.88,105.33,32ZM110,25.55c.45-1.07-3-.89-2.67-.54C107.92,25.82,109.53,26.62,110,25.55Zm7.4-.45c1.16-.17.63-1.07-1.24-.8s-5.09.27-5.09,1.61c0,1.07.63,1.6,2.68,1.78s3.83-1.78,2.85-1.78S116.21,25.28,117.37,25.1ZM113,23.41c.9.36,1.79-.8,2.41-.27s3.39,1,3.39-.44-3.48-1.61-4.37-1.07-5,.71-3.83,1.6C111.31,23.78,112.11,23.05,113,23.41Zm14.9-2.76c1.07-.72,3,.44,2.67,1.24s-3.44-.16-3.21.54c.09.27.45,1.34,2.59.71a5.59,5.59,0,0,1,5.35,1c1.42,1.16,2.76,1.61,3.74.45s-1.25-1.34-.8-2.23-1.43-1.43-2.41-1.43-1.34-1.78-2.14-1.42-1.34,1-1.34-.18-4.63-1.25-5.79-.8S126.83,21.36,127.9,20.65Zm.62,7.49c.71-.9-2.85-3.75-3-2.41S127.76,29.08,128.52,28.14Zm11.59-11.69c.63-1.07-3.76-1.91-2.67-1C138.06,16,139.49,17.52,140.11,16.45ZM130,36.7c.62-.72-1.34-2.23-1.88-1S129.4,37.42,130,36.7Zm10.07-6.25c-.09.9-2.14-.17-3.74-.8s-.63,1.25.62,2.32-.62.54-2.32-.62-1.51.8-.71,1.42-.18,1.52-1.25.09-1.6-2.94-3.3-3-.92,1.65-.27,2.5c.9,1.16,1.79,1.42,3.21,2.23s3.75-.36,4.82-.09-1.16,1.6-.45,2.49,2.68.27,4.19.18.81-1,1.7-1.6-.89-.54-.18-2S140.2,29.56,140.11,30.45Zm3.75-5.26a9.42,9.42,0,0,0,3.56-.62c1.16-.45-.62-.45.18-1.52s-2-1.16-2.14-.8-3.65-2.14-4.19-1.34S142.52,25.19,143.86,25.19Zm7.22.45c-.18-.54-6.94.28-5.88,1.07C147,28.05,151.26,26.17,151.08,25.64Zm-1,13c1.6-.09.8-2-1-3.39s-5.79,1.41-5.08,2A14.66,14.66,0,0,0,150.1,38.66ZM138.69,51.14c2,1.34,1.33-1.07,3.56-1s2.32-3.57,2.68-4.9S143.14,44,143.68,45s-.09,2-.27.8-1.87-.09-2.5-1,2-1,2.59-2.14-2.05-1-1.43-1.87-3.92.09-2.58.62.09,1.25-1.16.36-4.71.6-3.48,1.6c1,.81,3.92-.53,2.23,1.79s-2.41-.63-4-.36-.89,2.23,1.51,2.94S136.72,49.8,138.69,51.14Zm14.53-14.27c.63,1.79,1.34.54,2.32,1.25s2.5,1.16,3.3.45,1.16-1.25,1.43-.63c.43,1,2.4,1.16,6.68,1.25s3.21-1.78,4.46-1.07,4.1.72,5.35.45,1.88-2.23,1.79-3.21-9.63-1.78-11.33-.8-4.37-.45-5.71.26-.89-.89-3.3-1,.18-1.33.63-1.87-3.66-2-5.35-1.6-2.68-.54-4.28-1.25-6-.55-5.08.71c.62.89,5.79,2.76,6.33,1.87s1.87,1.07,2.67,2.05S152.6,35.09,153.22,36.87Zm4.55-10.52c-1.61-.8-3.62.9-2,1.52C157.23,28.4,159.37,27.16,157.77,26.35Zm-12.84-10c1.31.65.53,1.51,2,2.14s5.53-.81,5.89.17-4.2,1.07-3.57,1.7,3.21,1.6,2.85,2.14,4.28,2.05,4.73,1.34,1.69-.54,2.85-.09,1.25-2.77,2.05-2.23.72-1.16,2.05-1.7,3.27-.54,3.39-1.16c.09-.44-.35-1.07-2-.89s-2.68-.44-2-1.34-1.79-1.16-.89-1.87-1.7-1.42-1.43-.36-1.61.09-1.87-.89-3.93-1.33-6.33-3.47-4.91-.72-3.48-.45,1.34,1,.18.89-3.21.09-1.34.8-.18,1-1.7,1-1.6,2,.36,2.23.54,1.43-1.07,1S143.5,15.65,144.93,16.37Zm10.79-8.83c1.25-.81,2.23-.27,1.16.26s-.72.9.8.81-.62.44-.62,1.33,1.78.36,1.87,1.25,3.92,1.25,5.08.18.71.27.63,1,5.43,1.34,5.7.45,1.07-.54,2.14-.27,6.33-1,6.42-2,1.7.53,0,1.69-5.08,1-6.6,1.43,1,1.52,2.5,2.68-2,.53-3.39-1-4.63-1.51-6.33-1.42-1.16,3.21.09,3.21,2.5.44,3.75,2.41,3.92,1.51,3.92,2.4-3.48-.71-5.44-1.07-5.08.9-5.17,2.32,2.85,1.25,4.81.09.54.36-.44,1.25,2.32,1.6,2.32,2.68-2.41.71-2.68-.27-1.16-2-3.48-1.79-1.69,1.79-.27,2,1.52,1.24-.08,1.24-5.23,1-4.11,2.06,5.8,0,6.6.71,3,1,3.57.18,2.32-.45,4.1-.45,2.23.27,3,1,2.23.45,3.21-.27a2.55,2.55,0,0,1,2.23-.71c1.25,0,1.52-.8.89-1.78s-2.22.71-2.4,0c-.22-.88-1.7-1.16-4.19-.81s-1.43-1.6.09-1.15a10.73,10.73,0,0,0,5.26-.18c1.69-.45.35-1.25.35-2s2.14-.27,3.75-.27,3.92-2.59,4-4.1-3.57-1.16-5.35-1.16,1.16-1.34,4.55-1.16,1.87-1.34,2.49-1.87,2.23.62,3.93.26.53-1.78,1.69-1.78c.82,0,2.68-1.25,6.33-3.3S209,9.86,209.13,8.7s-5.08,0-6-.36,3.65-1.34,4.72-1.07,2.5,0,6.16-1.78,2.05-2.23.53-2-3.21-.26-3.12-1.24-2.23-.09-2.32-.63-2.23-.27-4.55.63-.17-.9.81-1.25-5.89,0-7-.81-2.49,1.34-3.56.27-3.84-.18-3.48.63-.45.8-1.52-.09-3.12.09-5-.18-1.07,1.51-3.12.62S177.39,1,178,1.29s-.18.81-1.07.54-1.69.09-1.25,1-3.3-.27-3.3.71S171.06,5,170,4.15s-4.46-1.16-3.48-.36-3,.36-2,1.16-1.34,1.43-1.34,1-2.23-1.25-3.12-.44-1.16,1.78-1.61,1.24-2.41-.35-4.28.36S154.47,8.34,155.72,7.54Zm22.47,76.95c.62-.09,1.87-2.32.27-2.23S177.22,84.63,178.19,84.49Zm-7.85-2c1.43.89,3.57-1.52,3.39-2.23S168.62,81.45,170.34,82.53Zm6.42-4.9c.18-.89-2.94-1.25-2.76-2.23s-2.94-1.79-3.93-2.32-2.49-.8-2.49-1.87-2.14-.27-2.23,1.33-1,1.25-.54,2.77-2,1.87-1.69,2.67,1.43-.09,2.5-.09-.29,1.5,1.07,1.61a5.13,5.13,0,0,0,3.38-1.87c.45-.72,1.34-1,2.59-.09S176.58,78.52,176.76,77.63Zm29.16-7.85c1.07.09,1.25,1.43,3,2.85s1.87.45,2.13-.53,2.15-.18,2.06-1.16,1.51-2.14,2.58-2.59-.89-1.51-2.32-1.42a1.42,1.42,0,0,1-1.69-1.52c0-.62-2.68-2.14-3.57-1.87s-2.41-1.16-3.56-1.25-2.86-1-2.68-2.23,2.32.36,2.76-.62-2.23-.45-2.31-1.16.62-.45,1.16-.9-.45-1.33-1.08-1.69-.8.71-1.42.71-.09-1,.35-1.6-2.05-1.34-3.12-1-1.42-.27-1.42-1-1.88,0-2.59.53-1.6-.53-.71-.62,2-.81,1.69-1.61-2.58-.89-3,.09-2.32-1.07-2.32-1.87-2.85-.09-2.5-1.43S184,46.24,183,46.24s-2.4.8-2.22,1.69-1.07.54-1.25-.44-2.59,1.07-3.3,1.07.44-2.59.09-3.39a21.22,21.22,0,0,1-1.43-2.41c-.54-1.34-3.21-.8-3.92,0s-3,.45-4.28,1.69.09,2.5.62,2.95-1.87,1.16-1.07,1.87,2,.36,2.14,1.52-2.94-.36-3.39-1.34.18-1.87-.44-2.59-.09-1.6,1.07-2.85,2-1.07,2-1.79-5-.71-7.94,2a6.89,6.89,0,0,0-1.87,7c.18.72,2.76.36,4.28.8s.71,1.07-.45.9-3.12-.54-3,.26,2.5,2.32,3.92,2,1.43-.36,2.06.44,2.31.54,4,.63a43.17,43.17,0,0,1,4.46.8,2.5,2.5,0,0,0,2-.89c.27-.45,3.56.71,4.55.62s.35-1-.27-1.25-.36-1.42.44-1,2.14.72,2.41,1.52,1,.35,1.07,1,2.94,1.34,3,2.05-2.76,1.07-2,1.69,2-.8,3.12-.89,1.07,2.32,1.88,2c1.09-.48,2,.45,3,2s-.09,2.94,0,3.47,2.14.36,3.3-.26,2.23.71,3.12,1.51-3.3,2.14-2.95,1.43S193.44,67,190.85,68s-.8,2.49-.53,3.38-2.32,1.79-4.73,1-1.69.53-2.67.53-2.06,1.52-1.16,2.5,2.85.09,4.46.18,1.78.53,2-.36,1.87-.45,3-.18.89,1.87,2.32,2,.26,1.61,1.16,2.59,3.74.44,4.81,1.51,5.61,3.21,6.24,2.41-3.92-5-5.26-5.35,1.34-.8,3,.54,4.2,2,5.44.35-1.07-1.16-1.07-2.32-.8-2.76-2-2.76-4.46-2.5-3.3-3-.35-1.25.54-2.23S204.85,69.69,205.92,69.78ZM187.11,65.5c1.07-.18.87-1.83.26-2.68-.44-.62-1.6-.71-2.58-.62s-2.68,1.6-1.79,3.12S186,65.68,187.11,65.5ZM176,42.31c-.53,1.16,1.16,1.16,1.25,2.5s1.78,1.78,3,1,4.82.24,4.82-.8-3.75-2.77-5.09-2.5S176.49,41.16,176,42.31ZM209.4,118.2c.18.71,5.35,2.85,5.53,1.88S209.25,117.59,209.4,118.2ZM232,123.52c-.36.66-.89-.47-.12-1.07s-.12-.83-.83-.47-.54-1.61.12-2-1.61-1.07-1.61-.41-1.6.24-1.78-.36-1.31-.77-.89-1.19-1.37-.65-1.55.06-.71-.47.18-1.42.6-1.79,1.43-2.26-.06-1-.95-.66-3.27,3.63-3.27,4.52-.06,2-.9,1.9-1.78.72-1.13,1.19-1.72,1.83-.59,2.44c.77.42,2-.18,3.09-.06a3.66,3.66,0,0,0,2.86-.48c.89-.65.89.6,1.84.48s-.54.77-.48,1.43,1-.36,1.73-.72,1.6,0,1.25.6,2,1.19,2.49.23S232.38,122.87,232,123.52ZM70.84,107.14c-1.6.85,2.25,4.92,3.06,4.41.55-.35-1-2.06-1-3.11S72.44,106.28,70.84,107.14Zm146.94,20.34c-.62.09-.13-.9,0-1.39s-1.34.23-1.38.81-1,.8-1,1.16c0,1-.13.49-.85.84s-3.48,0-3.56-.62-2.1-.94-2.19-1.79-1.07-1.11-.27-2-.13-1.38-.89-.67-1.2-.4-.18-.8,3-.8,2-2.58-7.14.53-8.7,1.42-3.52,3.75-4.37,3.75,1.47-1.52,1.83-2.1-.09-1.16.4-.93,1.87-1.92,2.81-2.63,2-.05,2.1-.63.58-1,1.47-1.78,11.54-.67,12.57-.63,3-1.33,3.61-2.23,1.34-.89,2.77-.8,2.09-1.2,2.8-1.69.45-.72-.17-.85-1.21-.53-.58-.58.93-.4,1.2-1.2-.22-.45-1.07-1.56-1.29.35-2.14.26.58-1.15-.13-1.6-2-.13-3.12.76-1-.05-1.92.84-.94-.44-.49-.8.76,0,1.16-.49.8,0,1.83-.67,1.91-.35,2.22-.84-.49-1.16-1.47-.94-1.65-1.34-2.27-.89-.49-.67-1.2-.23-1.12-.13-1.43-1-2.23-2.23-3.39-2.58-.4-1,.22-.54,1.34-.44,1.61-.89-.45-.85-.8-.89-.36-.63-.27-1.07-1.25-1-1.29-1.47-.81-.76-.76-1.16-.76-1-.76-1.52-1.34-1.6-1.38-2.23-.76-1.07-1-1.83-.62-.4-.89.67-1.2,1-.94,1.38c.55.74.14.76-.26,1.21s.26,1.11-.41,1.11-.35,1.39-.71.76-1.2-.45-1.2.18-1.43,1.2-2,1.16-.58-1.25-1.07-.89-.4-1-1.16-1-1.29-.05-1.07-.72-1.29-1-.8-1.38-.13-1.11-.22-2.27.67-1.25.67-1.7-.54-.44-1.08-.09-.53-.49-1.11-.44-2.32,0-2.41-.85-.67-.4-.93-1.16-1-.18-1-.71-.32-.76-.85-.81-.71-.62-1.43-.71a4.31,4.31,0,0,0-2,.67c-.4.18-1.42-.62-1.82-.31s-.49-.22-1.61-.54-2.58-.4-2.67,0-1,.54-.85,1.47,1.07.76,1.29,1.39-.44.4-.49,1-.62.53-.62.93.4.32.62,1.12.67.76.8,1.83-.35.84-.8,1,.05.67-.58,1.38-1.16,1.47-.67,1.92,2.32,1.2,3,2.4a7.18,7.18,0,0,1,.44,4.42c-.22,1.34-1.74,1.65-2.85,2.81a3.48,3.48,0,0,1-2.81,1c-.54,0-.22,1.12.53,2s.14,1.11.54,2,0,1.61.58,2.41.22,1.11-.45,1.69.27.27.31,1-.31.31-.89-.09-1.11.76-1.11,1.25-1.38-.67-1.7-.63.09-.75-.71-1.38-1.43-.76-1.43-1.38-1.38-1.07-1.38-1.78.18-2.54-.13-3.08a1.61,1.61,0,0,1,.22-1.6c.27-.5-.31-1.25-1.11-1.25a28.44,28.44,0,0,0-3-.18,2.78,2.78,0,0,1-2.09-.4,7.49,7.49,0,0,0-2.77-1.34,3,3,0,0,1-2.14-1.47c-.13-.4-1.51-.71-1.82-1.12a3.3,3.3,0,0,0-2.19-.53c-.53.09-1.87-1.12-2.67-1.07a22.47,22.47,0,0,0-3,.89c-.31,0,0-.67.27-1s-.67-1.65-.9-2.54-.53-1.88-1.47-1.74a3.8,3.8,0,0,1-2.23-.54c-.26-.18-.31-2.72-.08-3.79s1.38-2.67,1.38-3.34.75-1,1.42-1.16.14-1.47.81-1.56.71-.36.84-.89.94-.18.49-.63-.08-.58.94-.58,2.54-.35,2.32-1.38-2.9-.27-2.9-1.11-3.39-.89-3.17-1.38,3.39.35,4.55.8a4.41,4.41,0,0,0,2.41.35c.94,0,.31-1.24.49-1.73s2,.75,3,.49,2-2.37,2.85-3,.09-1.11-1.56-1a4.61,4.61,0,0,1-3.48-1.16c-.89-.67-.8-1.2.14-1.11s3.16,1.92,4,2,2.32-1.65,3-2.18-.67-.76-1.16-1.16.85-.67,1.56-.67,1,.62,1.3.93,1.51-.22,2.14-.22-.09-1-1.12-1.43.05-1.15.36-.53,1,.49,1.38,1.2c.52,1,.85.36,1.74.05A4.35,4.35,0,0,0,173.51,67c.49-.54.58.08,1.16-.76s-.27-1.65-1-2.19,0-1.07-.67-1.42-.85-1,0-.85a1.81,1.81,0,0,0,2-.72c.4-.62-1.34-.75-.54-1.2s.14-.89-.67-.89-1.47-.4-1.51-1.07-1.43-.22-2.28-.63a8.06,8.06,0,0,0-3.16-.26c-.45,0-.49,1.87.18,1.92s1.2.75.62,1,.09.93-.36.89-1.15-.27-1.29.89-.22,1.6-1,2-.18-1.3-.89-1.25-.8,1.42-.27,1.56.63.58.76,1.25-1,.17-1.43,1-.49-.36-1.11-.89-1.38-1.43-1.34-2.1a.88.88,0,0,1,.85-.89c.49-.09,0-.54-.05-1.34s-.62-.53-1.33-1.38-1.48-.85-1.88-.45-.13,1.16-.75,1.43-.36,1.52-.9,1.6-.22-2.18-.67-2.4-.4-.76.27-.85,1.07-.8.49-.8a6.66,6.66,0,0,1-2-.81c-.41-.17-1.07.76-1.52.41s0-1.25.09-1.74.71.22,1.16-.4-1.25-.63-1.25-1.3-1.34-.84-1.78-1.07.31-1.34.09-1.78-1.88-1.92-2.59-1.78-.89-.94-.49-.9.71-.22,1.47-1.07.85-1.11.31-1.29-.8-.71.14-.67,2.58.67,3.12.27a39,39,0,0,0,2.9-4c.66-.93-.49-1-2.1-.89s-2-.62-3.3-.71-3.83.26-4.19.67.67.75.53,1.2-.93-.31-1.29-.14.14.76,0,2.32a2.2,2.2,0,0,0,.76,2.23c.45.58.36,1.34.36,2.32s-.94.94-1.25,1.16.8.58.62,1.2-1.11-.35-1.65-.17-1,1.69-.4,2.18.8.4.36,1-.94,1.43.13,2.28,3,.75,4.06,1.42-.45.27-.05,1-.66,1-.62,1.6.45.27,1-.71.94.27.89,1.11-.8.36-1.38,1.21a1.61,1.61,0,0,1-2,.8c-.85-.18-.36,1.2,0,2s-.09,1-1.07.76-1.56-.89-1.07-1.65.85-1.65.27-1.56-1.92,0-2.32-.67.27-.36,1.47-.22.18-.8,1.07-.8,1.56.49,2.32-.18-.49-2-1.12-1.74-1.6.49-1.6-.13,1.07-.18,1.65-.32-.31-.93-1.21-.71a1.93,1.93,0,0,1-2.23-.49c-.71-.76-2-1.2-2.31.53s-1.56.81-2.06,1.39.58,1,1.79,1,2.09,1.16,1.51,1.16-.31.85-.93.54-1.25,0-.8.53-.18.76-.14,1.29-.93,0-1.87,0a16.25,16.25,0,0,0-3.92.49,3.71,3.71,0,0,1-3.17-.76c-.54-.58-1.25-.49-2.14-.49s-.62-.85-1.78-.89-.9-1-1-1.61-2.45-.4-3.3.14-2.5.31-2.94,1.29.4.85.89.85c.68,0,.62-.8,1.87-.63s2.14-1.29,2.68-.75-2.14,1.56-3.3,1.74-.89,1.11.22,2.76-.49.71-.49,1.52-2.09-.27-1.25-.54.45-1.11-.22-1.65-1.11,0-1-.58-.71.05-1.33-.44-.94-.9-1.79-.45-1.82.31-3.7.62-5.3.23-5.93-.4,1.61-1.74,2.28-1.56.26-.71-.76-1.51-3.3-1.3-3.26-.81-1.29.05-2.94-.26-1.87-.9-2.94-.94a7.09,7.09,0,0,1-3.93-1.34c-1.24-1-4.19-.71-4.54.18s-1.34.85-2.32.85.44-1.1.09-1.3,0-1.47-.67-1.56-1.38,3-2.72,2.86-1.92-3.21-3-4-2.14-.84-1.21.36-.8.36-.71,1.16-1.52,1.74-1.47,1.29-.89-.93-2,.32-1.83,1.07-1.92.62-3.25,1.16-3.12,1.69-.49.94-1.34.9-.18-.76.49-1.12,2.81-2.05,3.88-2.23,3.12-1,3.17-1.51-1-.09-1.74-.23-2,.67-3.17,1.21-2.58.35-2.23,1.07-1.11-.09-1.42.4-.9-.05-.45-.31-1.07-.76-1.07-.45-.27.71-1.34.71-2.14.76-1.42,1.3,1.15.8.8,1.16-1.47-.94-3-.81S58,58.45,58,58s-2.19-.14-3.71-.3V88.53s.77.57,1.07.21.83.12,1.84-.35,1.37.53,1.37,1,1.43,1.25,2,2,.89,1.43,1.55,1S64,91.78,64,91s2.73-.89,2.73.12,2.8,2.2,4.34,4.94,1.31,3.33,3.57,4.22,2.2,1.36,1.9,2.14,1.37,1.19.42,1.84c-.37.25-.88.62-1.37,1,0,.39.39.64.85,1s-1,.45-.54.85-.09,1,.36,1.52a1.31,1.31,0,0,0,1.74-.09c.49-.41.85.49.44,1.16a.54.54,0,0,0,.85.66c.4-.49,1.25.81,1.65,1s.8.89.14.89-.58,1.16-.09,1.2.44.67.44,1.08,1.56,1,2.14.8,1.12.35,1.38.85,1.34.84,1.74.53.67.58.76,1.2,1,.27,1.52.23.84.71,1.2.58c.79-.3,1,1.07,1.54,1.88l55.42-.3s0-1.38.69-.9.06,1.25.83,1.55,1.31.77,1.73.59,1.13-.77,1.84.06,1.25.12,1.67.65,1.18,1,1.72.3,2.08.11,2.87.41c1-.79,1.75-2.46,2.63-2.46,1.16,0,4.1.27,4.28,1.78s2,.09,2.14,1.52c.15,1.21,1.33,2.17,1.13,2.81a12.58,12.58,0,0,1,1.15.79,6.69,6.69,0,0,1,3.07.41c1.25.45,3.12-.53,3.74,1s2.08,2.66.72,2.77c-1.16.09-2.68-1.52-2.59-.63s-.62.45-.62,1.79-.89,3.21-1.43,3.12l0,0a1.75,1.75,0,0,0,.32,1.57c.68-.49,1.66-1.34,2.5-1.28,1.33.08,1.69.89,2.58.26s1.07-.89,1.25-.44a.31.31,0,0,1,0,.2c.34-.18.58-.36.59-.5a2.11,2.11,0,0,0-.11-.8c-.89.13-1.18.2-1.43-.42-.36-.89,2.67-1.78,4.1-1.6s2.3-.79,2.78-.2a11.49,11.49,0,0,1,2.69-2l6.9-.06s2.2-1.37,2.49-2.62,1.73-4.22,2.56-3.57,2.61.18,2.67.78a7.2,7.2,0,0,0,1.7,5.59,4.59,4.59,0,0,1,2.11-.88,3.54,3.54,0,0,0,2.36-1.7c.36-.66.85.63.14.85s.58.76,1.82.71-.58.45-1.51.41-1.34.09-2.59,1.33-.93,1.61-.22,2.23,1.65.36,2.63-.49.94-1.69,1.92-1.65,3.52-.89,4.63-1.25.4-.53.4-1,2-.49,2.68-1S218.41,127.39,217.78,127.48Zm-116-57.8c-1.17,1.46-1.56,1.67-2.76,1.46s-2,.39-1.35.81.64.78-.6,1.07S95,74.26,94.47,74.15s2.12-2,1.45-2.48-2.34.85-2.38,1.45-1.13.64-1.8.61-1.56-.68-.89-.75.21-.81,1.13-1.17-.17-.88.11-1.27,2.16.39,2.2-.32-1.88-1.31-2.52-.89a3.94,3.94,0,0,1-3.9.64c-.56-.25,4.47-.78,5.32-1.56s4.68-1.67,5-1-2.05,1.17-.92,1.81a3,3,0,0,0,3.4-.46C101.06,68.13,102.9,68.23,101.73,69.68ZM113,84c-1.39,1.2-1.28.88-2.48,1.09s-.25,1.42-1.71,1.53-5,.25-5.46-.57c-.16-.27,1.92-.07,2.06-.67s.71-1.56,1.6-1.56.81-1.17-.64-1.88,2.09-1.17,2.9,0,2.27,2,3.09,1.14,5.46-3.09,5.46-2S114.39,82.8,113,84Zm31,32.41c-1,.11.09-2.59-1.7-3.57a5.76,5.76,0,0,1-3-4.46,1.46,1.46,0,0,1,2.5-.8c.71.89,1.78,4.55,2.4,5.71S144.84,116.33,144,116.42Z"/><path class="cls-1" d="M76.5,102.42c.3-.78.36-1.25-1.9-2.14s-2-1.49-3.57-4.22-4.34-3.93-4.34-4.94S64,90.23,64,91s-1.19,1-1.84,1.43-1-.24-1.55-1-2-1.55-2-2-.36-1.49-1.37-1-1.54,0-1.84.35-1.07-.21-1.07-.21V57.71a4,4,0,0,1-.92-.19c-1.3-.49-3.21-1.38-4.24-1.16s-3.07.49-3.79.13a5,5,0,0,0-3.16-.44c-1.48.22-2.41-.81-4.28-1.25a11.3,11.3,0,0,0-5.13.36c-.63.22-.49-.67-1.29-.58s-.18-.36-.63-1-2.67,0-3.48,0-1-.4-1-.8-.71-.27-1,.27a1.12,1.12,0,0,1-1.56.27c-.36-.36.75-.49.8-.89s-1.16-.63-1.61-.76-1.16.44-2.09,1.29a4,4,0,0,1-3.17.67c-.84-.09-1.91.09-1.87.58s1.07.44.45,1.07-.85-.85-1.48-.18-2.49.62-2.94.54-1.92,1.51-2.36,2,.36.84-.85,2.14-4.41,1-5.08,1-.18.76-.54,1.25.4.94,2.23,1.43,3.08,2.9,3.3,3.48,2.5-.05,3.39.09-.09,1.38.67,1.73,1.92-.17,2.14.45-1.52,0-2.41.67-1.34,1-1.69.49-1.83-.18-2.59-.09,0-.94,0-1.38-1-.76-2.49.09-.94.53-1.12,1.2-.8-.4-1.74.18S.29,71.34,0,71.92s2,1,2.9,1.16-1.07.76-.36,1S3,75,4.08,75.53s3.61,0,4.28,0,1.29.8,1.83.22,2.54-2.18,3.56-1.24-1.11.8-.58,1.38,1.21,2,.23,2.67a2.82,2.82,0,0,1-2.45.18c-.54,0-.23,1-1.07,1.65s-1.48-.71-2.55-.71-.84,1.38-.8,2-1.6-.14-2,1.47-2.1.22-1,1.78.94.58,1.83,1.21-1,1.74-.09,1.91,1.88,1.79,2.5,2.37,1.43-.31,2.36-.36.49-1.34,1-.85,1.29,1.92.8,2.28-.09,1.47-.18,2,2.05.36,2.19-.26,1.83-.81,2.76.22S18,94.7,18,93.9s.8-1.69.85-1,.8.85,2.18.23.76,0,.05.93c-1,1.24,0,3-.72,3.21s-1.29,2-2.45,2.15-3.12,2.31-3.39,2.67-2.76-.71-3.12.31-1.86,1.79-1.47,2.19,2.32-.76,2.41-1.3.35-.44.71,0,1.25-.18,1.65-.53,1.07-.23,1.47-.18.58-.49,1.79-.72.93-.58,1.2-1.2,3.12-2,3.66-2.1.22-1,.8-1.07A5.73,5.73,0,0,0,25.84,96c.76-.62.93-.36,1.51-.58s.14-1.38.72-1.47a1.14,1.14,0,0,0,1-1c0-.49-1.47-.49-1.6-.8s1.16-1.47,1.65-1.43a1.39,1.39,0,0,0,1.33-1.2c.05-.71.76-.85,1.34-1.47s.45-1.16,1-1.2S34,86,34.58,85.65s0,.45,1.2.49.94,1.16,0,.76a1.52,1.52,0,0,0-2.09.4c-.8.76-.18,1-.8,1.83s-.67,1.38.13,1.47,0,.67-.71.89-.23.67.8.67,2.54-1.47,4-2.18,2.49,0,2.9-.14-.45-.8,0-1-.58-.36-.89-1.21.49-.31.67-1,.67-.4,1.11-.09,1.07-.31,1.47.54.85-.22,1.56.36-.13.49-.89.66-.35,1.21.23.72,1.07-.8,1.6-.31.76.26,1.2-.18.45,0,.45.4.94.49,2.27.71a22.37,22.37,0,0,0,4.37-.13c.63,0,.41.93,1.79,1.2s1.74-1.38,2.45-.8,0,.8-.4,1.25.44.49,1,.71a7.69,7.69,0,0,1,2.36,1.16,7.16,7.16,0,0,0,2.36,1.92c1.43.71,0-1.79,1.16-1s.72,0,1.61.84.58-.35.18-1.69.4-.45.8.18a3.53,3.53,0,0,1,.13,2.63c-.26.8-1.6.13-1.47-.31s-1.33-.27-1.38.35a2.64,2.64,0,0,0,1.65,2c.71.13.18,1.25.62,1.38.62.18.58,1.34.94,1.16s.22-1.56-.18-2.19-.22-1.51.31-1.34,0,1.12.27,1.43.58-.31,1.21-.67-.27-1.38,0-1.92.94.45,1.21,1.39-.67.89-.67,1.38-.85.27-1.12.54-.13,2,.22,2.09.58-1.47.81-.71,1.07-1,1.29-.27,1.29,1.52,1.69,1.34-.17-.94-.8-1-.53-1.07,0-1.12,1.6,1.47,1.56,2-.54.49-1,1-1.16-.89-1.74-.84,0,.93.27,1.56-.71,1.47,0,2,.54-.31.67-.67.72.09,1.12.4.44-.71.44-1.11.67-.18,1,.35.4-.58.94-.49.17.94.17,1.43.94-.4.85.13a.88.88,0,0,0,0,.23c.49-.35,1-.72,1.37-1C77.87,103.61,76.2,103.19,76.5,102.42Z"/><path class="cls-1" d="M1.27,108.75c1.07-.45,1.52-1,1.07-1.52S.45,109.09,1.27,108.75Z"/><path class="cls-1" d="M8.85,104.74c-1-.36-3.56,1.21-2.67,1.33.62.09.89-.53,1.6-.53S9.83,105.09,8.85,104.74Z"/><path class="cls-1" d="M31.46,94.26c0-.49-.67-.45-1.57.58s-1.64,1.56-1.78,2-1.16-.09-1.47.53.22,2,.85,1.57.67,0,1.07,0a6.85,6.85,0,0,0,2.63-1.88c.4-.62-.72-.8-.76-1.2s.94-.4,1.43-.67S31.41,94.75,31.46,94.26Z"/><path class="cls-1" d="M3.05,89c-.09-.72-2,0-1.78.62s2,1.11,2.81.85a.81.81,0,0,0,.4-1.39C4,88.64,3.14,89.71,3.05,89Z"/><path class="cls-1" d="M202.47,125.13c-.06-.6-1.84-.12-2.67-.78s-2.26,2.32-2.56,3.57-2.49,2.62-2.49,2.62l-6.9.06a11.49,11.49,0,0,0-2.69,2l.07.11c.65,1.16-1.69,1.87-3.92,2a12.65,12.65,0,0,0-1.6.15,2.11,2.11,0,0,1,.11.8c0,.14-.25.32-.59.5-.34.69-3.08,2-4.61,2.83-1.69.89-4,.44-4-.89s1.25-1.07,1.52-.45c.1.23.4.07.8-.23a1.75,1.75,0,0,1-.32-1.57c-.51-.23.28-2.22-.75-2.57s-2.32,1.52-2.14.36,1.78-2.14.8-3.66-2.76-1.51-3.12-.35-1.61.62-2.05,1.51a7.34,7.34,0,0,0-.54,4.28c.36,1.43-.09,2.14-1.42,2.94s-2-1.22-1.52-3.83c.36-1.78,1.34-3.48.45-3.48s1.16-2.14,3-2.58,4.19-.27,4.19-.81c0-.1.08-.18.23-.23a12.58,12.58,0,0,0-1.15-.79.57.57,0,0,1-.24.31c-.73.51-.53-.8-1.87-.8s-2.68,1.25-3.75.71-.53-1.25-1.51-1.25.71-1.87-.72-1.07S157,127.3,156,126.41s-1.88.26-2.59-.45,2.5-2.68,4-2.59a1.53,1.53,0,0,0,1-.39c-.79-.3-2.44-.94-2.87-.41s-1.31.24-1.72-.3-1,.18-1.67-.65-1.43-.24-1.84-.06-1-.3-1.73-.59-.17-1.07-.83-1.55-.69.9-.69.9l-55.42.3c.07.09.13.18.2.26.67.71.13,1.24.36,2.09s0,2-.63,2a.53.53,0,0,1-.27-1c.5-.27.23-1.25-.26-1.25-.29,0-.4-.34-.39-.73a8.48,8.48,0,0,1-3.18,0,.75.75,0,0,1,0,.16,5.59,5.59,0,0,0,1,2.67c.71.94.22,1.52.89,1.88s.63.76,0,.67-.18.49-.4,1.82-.18,4.11-.31,4.95-1.12,2.23-.54,3.12a4.16,4.16,0,0,1,.67,3.26,3,3,0,0,0,.23,2.63c.49.85.09,2.32.62,2.63a5.05,5.05,0,0,1,1.52,1.74c.49.8.93.31,1,1.11s.09.94.8,1.25.27,1.12.27,1.56.94,1.25,2.1,2.28.18,1.87,1,1.87a5,5,0,0,1,2.5,1c.85.54,1.11.23,1.69.36a4,4,0,0,1,1.88,2.23,7,7,0,0,0,.45,1.27l4.62-.61a9.58,9.58,0,0,0,2.24,1.19c.81.19,5.19,1.81,5.19,1.81l5.72,0,.66-.85h3.15a27.66,27.66,0,0,0,2.28,2.05c.29.09,1.29,1,1.29,1.57a1.34,1.34,0,0,0,.72,1.28,12.08,12.08,0,0,0,2.33,1.2c.24-.1.71-1.91,1.57-1.86s3.19.71,3.57,2.05a6,6,0,0,0,1.91,2.71c.38.29.19,1.1.47,1.52s.24,1.24.58,1.24,2.05,1,2.81,1a1.71,1.71,0,0,1,.83.32c.1-1.6-1.54-1.86-.58-2.6,1.12-.84,0-1.56.49-1.91s1.47-.72,1.47-1.25.49-.54,1.21-.45,2.05-1.16,2-1.65.13-.58,1-.4.71-1,1.25-.8,1,.49,1,.09.58-.31,1,.22,1.57.67,1.65.05.76,0,1.34.62.85.44,1.7.49.84-.18.89-.71.93,1.15,1.78,1.24.18-.53-.44-1,.13-.71-.41-1.11.67-.94,1.74-.9,1,.31,1.43-.31.8,0,.8.54,1.74-.32,2.68-.32a2.07,2.07,0,0,1,1.87,1.34c.09.54.71.8,1.38.22s1.25-1.24,1.88-.62,1.24,1.47,2,2.23-.35,1.69,0,2.27,0,1.39.84,2,.09,1.92.81,2.1,1.29,1.29,1.38,1.73,1.42,1,1.51.27.81-1.65.9-2.36a9.6,9.6,0,0,0-1.12-4.06c-.58-.8.13-1-.58-1.92a6.71,6.71,0,0,1-1.11-3.92c0-1.34,1.6-3.52,2.36-4.19s1.61-.31,1.78-1,1.12-1.6,1.65-1.6,1.12.13,1.21-.45,1-1.29,2.14-1.47.49-.8.18-1.34.26-1.07.49-.71a1.05,1.05,0,0,0,1.38.09c.44-.31,1.47-1.16.49-1.2s-1.21-.45-.63-.67.09-1.3-.71-1.39-.53-.49,0-1-.72-1.29-1.3-1.69.36-.63.81-.71.09-2.14.31-2.63,1-.49.67,0-.76,1.29-.18,2a2.49,2.49,0,0,1,.53,2.41c-.22,1,.23.75.9-.58s.75-2.5.31-2.64-.4-1.47.09-.84.67.71,1.42-.09,1.56-2.19,1.07-2.5.23-.62,1.12-.58a6,6,0,0,0,2.94-.8c.44-.87-3.08.4-3.08-.09s2.23-1,3.26-1,.53-1.42,1-.84a1.19,1.19,0,0,0,1.69.13c.58-.36.14-1.38-.53-1.56s.49-.62.27-1a2.23,2.23,0,0,1,1.29-2.19c.85-.18.45-.71,1.16-.71s.85-.85,1.47-1.47,1.52,1,2.5.08a11.25,11.25,0,0,1,1.5-1.12A7.2,7.2,0,0,1,202.47,125.13Z"/><path class="cls-2" d="M162,200.13c-.35-.47-1.25.09-2.2-.56a4.15,4.15,0,0,0-.87-.43.18.18,0,0,1-.07.05,7.21,7.21,0,0,0-1.43,1.19,11.3,11.3,0,0,0,3.9,1.33.94.94,0,0,0,.65-.27A2.66,2.66,0,0,0,162,200.13Z"/><path class="cls-3" d="M164.07,201.47c.08-.18-.52-1.17.64-1.25s2-.22,2.2-.95,1.55-.39,1.94-.43,1.34-1,2.34-.94c0-1-1.31-.66-2.23-1.58s-3.12-.54-4.28-.09-2.5-.49-3.75.22l0,0a7,7,0,0,1-1.08,1.12c-.84.68-.61,1.36-.92,1.55a4.15,4.15,0,0,1,.87.43c1,.65,1.85.09,2.2.56a2.66,2.66,0,0,1,0,1.31c.17-.14.31-.24.6,0s.21.49.18.76l.74-.17A3.47,3.47,0,0,0,164.07,201.47Z"/><path class="cls-4" d="M154,195.78c.22,0,2.46.26,2.67-.3s-1.68-1.8-1.46-1.93.3-1.51.64-1.51,3.49.09,3.66,0,.78-1.21,1.29-1.25c.24,0,.61.27.94.59a4.8,4.8,0,0,0,.89-2.73c.14-1.21-.26-1.61.36-2.28s1.29-.71,1.11-1.65-1,0-1.73-.44-1.34-.13-3.17.13-2.67,1-2.59,2.32-.62.71-.57,1.83-1.43,1.16-1.34,1.83-1.16,0-1.52-.23-4.19.94-4.72,1-1.52-1.11-2.28-1.07-1.07-1.12-1.16-2.05-1.51-1.79-2.14-2.63-.71-2.72-.76-3.93a14.2,14.2,0,0,1,.67-5.61,2.71,2.71,0,0,0,.18-.84,1.68,1.68,0,0,0-.83-.32c-.76,0-2.48-1-2.81-1s-.29-.81-.58-1.24-.09-1.23-.47-1.52a6,6,0,0,1-1.91-2.71c-.38-1.34-2.71-2-3.57-2.05s-1.33,1.76-1.57,1.86a12.08,12.08,0,0,1-2.33-1.2,1.34,1.34,0,0,1-.72-1.28c0-.57-1-1.48-1.29-1.57a27.66,27.66,0,0,1-2.28-2.05h-3.15l-.66.85-5.72,0s-4.38-1.62-5.19-1.81a9.58,9.58,0,0,1-2.24-1.19l-4.62.61a8.25,8.25,0,0,0,1.06,1.67,10,10,0,0,1,1.7,3.93c.09.71,1.38,1.29,2.49,2a2.65,2.65,0,0,1,1,2.68c-.13.4-1.51-.27-1.6.13s1.78,2,2.5,1.88,1.07.35,2.18,1.33,1,2.14.58,2.5.89,1.11,2.32,2a5.05,5.05,0,0,1,2.14,2.59c.13.49.76,0,1-.63s-.45-.84-.45-1.6-1.16-.63-1.69-.72,0-1.24-.49-1.78a7.45,7.45,0,0,1-1.29-2.85c-.27-1-1.65-2-2.23-3a7.1,7.1,0,0,0-1.61-2.19c-.4-.27.58-.67.22-1.07s-.89-.36-1.56-.67a1.72,1.72,0,0,1-1.11-1.56,12.91,12.91,0,0,0-.67-3c-.22-.58.49-.49.71-.22s.41.54.72.36a.8.8,0,0,1,1.07.44c.22.49,1,0,1.33.27s-.8.49.36,2.54.36.89.36,2.28.71.75.93.53.85.45,1.43,1.16,1.7.76,1.7,1.16a1.33,1.33,0,0,0,1,1.34c.75.13.89,1,1.38,1.07s.58.62.31,1.2,0,1.07,1.25,1.56.67.58,1.65,1.52a58.63,58.63,0,0,1,4.32,4.81,8,8,0,0,1,1,2.19c.23.62-.44.93-.08,1.47s-.67.31-.63.71.63,2.41,1.61,2.5,2.09,1.29,2.89,2,2,.54,3.22,1,2.22,1.52,4,2a18.11,18.11,0,0,1,4.55,2c1.12.71,2.5.4,4.06-.22s2.76.17,3.65.53a11.76,11.76,0,0,1,2.17,1.69A19.74,19.74,0,0,1,154,195.78Z"/><path class="cls-2" d="M159.81,197.59a7,7,0,0,0,1.08-1.12c-.7.38-.91,0-.81-.47l-1,.13.11-4.06c-.81,0-3.09,0-3.38,0s-.43,1.38-.64,1.51,1.68,1.37,1.46,1.93-2.45.26-2.67.3a19.74,19.74,0,0,0-1.64,2.18c.89.78,1.77,1.61,2.2,1.88.85.53,2.23-.05,2.81.49l.07,0a7.21,7.21,0,0,1,1.43-1.19C159.25,199.06,158.9,198.33,159.81,197.59Z"/><path class="cls-4" d="M159.46,192l-.28,0-.11,4.06,1-.13a1.83,1.83,0,0,1,.63-1c.8-.62-.4-3.12.54-3.34a1,1,0,0,0,.44-.27c-.33-.31-.7-.6-.94-.58C160.24,190.83,159.63,192,159.46,192Z"/><path class="cls-4" d="M191.39,187.4c-.9.62,1.33,2,1.33,2.76s-3.57-.15-3.92.72c-.18.44,1.25,1.07,2.59.62a3.31,3.31,0,0,1,2.79.37c.1-1.35.25-2.88.39-3.91C193.44,187.67,192,186.94,191.39,187.4Z"/><path class="cls-4" d="M196.83,191.06c1.6-.54,4.19.44,4.19-.81s-4.28-2.58-5.35-2.23a2,2,0,0,1-1.1-.06c-.14,1-.29,2.56-.39,3.91l.15.08C195,192.3,195.22,191.59,196.83,191.06Z"/><path class="cls-2" d="M167.28,206.2c.44.23,1.55,0,2,.33a1.39,1.39,0,0,0,1,.12,2.91,2.91,0,0,1-.27-.44c-.32-.57.22-1.73.49-2.58s-.23-2.9.26-3.43.23-.85.45-2.1a1.33,1.33,0,0,0,0-.2c-1,0-2,.91-2.34.94s-1.77-.3-1.94.43-1,.86-2.2.95-.56,1.07-.64,1.25a3.47,3.47,0,0,1-.61.56l-.74.17a.64.64,0,0,0,.31.76c.71.4,1.69,2,2.45,2.36a1.43,1.43,0,0,1,.69.82A2.54,2.54,0,0,1,167.28,206.2Z"/><path class="cls-4" d="M232.32,299c1.25-.89.93-1.42,1.51-2.49s.09-1.52,1.07-2.45-.18-1.56,1.07-2.14,1.07.53.05,1.82-1.21,1.65.13.67,1.83-2.36,2.59-3.92,1.34-2.05,2-2.14.67-1.74.58-2.9-.44-2.23.05-3,0-1.47.62-1.47,1.56-.93,2.54-1.92a3.4,3.4,0,0,1,2.63-1.15c1-.09.45-.45,1.12-.63s1.11-.8,1.56-1.2,2.27,0,3.34,0,1.79.09,1.79-.58a1.15,1.15,0,0,1,1.11-1.2c.63,0,.89-.18.89-1.07a2,2,0,0,1,.81-1.83c.53-.4.62-1.29.8-1.87s.76-.23.76-1.07.31-1.79.31-2.45.71-.58,1-1.07-.26-1.12.23-2.5,0-2.68,0-3.92,0-2.55.44-2.95.23-.62-.13-.8,0-.67.36-.58.66.76,1.24.4,1.12-1.87,1.61-3.12,1.29-1.2,1.92-1.47a8.17,8.17,0,0,0,2.81-4c.84-2.18,0-4.32-.41-5.84S267.9,239,267,239s-2.59-.18-4.82-2.59a5.47,5.47,0,0,0-5.89-1.82c-1.47.4-3-.72-4-.94s-1.92,1-2.63,1.29.35-1.07.4-1.91-2.68-2.06-4.73-2.86-2.94-.4-2.94.89-.8-.4-1.43,1-1.78.49-1,0a4.54,4.54,0,0,0,1.73-2.32c.27-.85-2.94-1.52-4.05-1.07s-.4,2.05-1.3,1.56-.17-1.69.54-1.65,1.52-1.42,2-2.49-.85-1.25-1.65-2.15-.63-3.45-1.45-3.86a10.57,10.57,0,0,0-2.37,3.21c-.43,1.27-1,.54-2.12.9a1.52,1.52,0,0,1-2-.6c-.3-.48-1.45,0-2.23-.06s-.3,1-.85,1.27-1.93-.61-2.41-.06-.78,0-1,.48-1.08.18-1.32.48-1.09.49-2.18-.72-.9-3.2-.42-3.56a1.06,1.06,0,0,0-.18-1.69c-.67-.3,0-1.57-.85-1.69s-.72,1-1.26,1.14-1.87,1.09-2.48,1-1.39.12-1.39.78-.66.49-.78-.06-1.39-.24-1.75-.6-2.05-.18-1.33.24a1.42,1.42,0,0,1,.79,1.51c0,.66.54.48.54,1.27s.6.24,1,.24.42.73-.25.85a1.34,1.34,0,0,0-1.14,1.08c-.18.61-.79.18-1.33.67s-1,1-1.39.72-.66-.06-1.09.18-.6,0-1.2-.48-.74-1.24-1.54-2a6.1,6.1,0,0,1-2,.58c-.7,0-2.91-.17-3,.22a1,1,0,0,0,.52,1.1c.36.08,1.12.3.4.83s-1.37-.18-1.37,1.08,1.63,2.09,1.29,3.26a15.38,15.38,0,0,0-.41,2.74c0,.6-.24,2.62-.77,2.74s-1-.48-1.73.12-1.6.23-2.44.89-1.72.41-1.78,1.19-.83,1.19-.65,1.9-.36.53-.89,1.07.05.89-.3,1.31.12,1.07.53,1.72.9,1.13.84,1.73.41.83,1,.77.11,1.13,1.07,1.13,1.9.24,2.14-.3.89-.95.89-.18-.18,2.86.47,2.62a4.86,4.86,0,0,1,2.62.06,1.63,1.63,0,0,0,1.72-.42c.42-.41.89-.41,1.73-.89a5.49,5.49,0,0,1,2.38-1.07c.77,0,2.08-.48,1.9.12a5.23,5.23,0,0,0,.65,3.92c.95,1.13,1.49,1.55,2.38,1.43s.77.36,1.43.3.23.71.83.71,1.66.12,1.66.77,1.79.12,2.2.48.89.65.78,1.36.89,1.25.29,1.55.18.89.24,1.67.89,1.07,2.2,1,1.67.06,1.67,1,.89,1.07,1.18,2-.35,1.9-.23,2.61a1.46,1.46,0,0,1-.62,1.37c.46.59.5.85.09,1.08s.66,1.14.36,2.47-.36,1.57,1,1.63,1.27.48,1.75.18,1.21,1,1.39,1.69.72,2.23,1,2.23,1-.72,1.69-.36-.16,2.61-.19,3.6a3.79,3.79,0,0,1,1.32.09c.37.18.55,2.62.37,3.07s-1.67.85-2.44,1.35a15.25,15.25,0,0,0-3.48,3.66,15.65,15.65,0,0,1-1.78,2.12,1.29,1.29,0,0,0,.61,0c.4-.18,1-.18,1.71.63s.63,1.45.91,1.4.58-1.08,1.12-.31,1.95,1.35,2.26,1.71,1.36.64,1.36,1.58a6.24,6.24,0,0,0,.21,3.05A4.61,4.61,0,0,1,232.32,299Z"/><path class="cls-4" d="M231.17,296.83c0-.94-1-1.22-1.36-1.58s-1.71-.95-2.26-1.71-.85.27-1.12.31-.23-.59-.91-1.4-1.31-.81-1.71-.63a1.29,1.29,0,0,1-.61,0,2,2,0,0,0-.62,1.13c0,.86-.63,1.81-.67,3.44s-.5,1.35-.54,2.62.4,1,.58,1.22,0,.5-.15.84a1,1,0,0,0,.8.39,5,5,0,0,1,2.58.67c1,.44.63-.14,1.56,0a4.36,4.36,0,0,0,3-.41,6.63,6.63,0,0,0,1.6-1.88A6.24,6.24,0,0,1,231.17,296.83Z"/><path class="cls-4" d="M205.83,352.06c-1.11-.05-3.3-2.1-4-2.63s-.17-1.07-1-.94-.26-.62.18-.85-.16-1-.7-1.09c-.06,1.2-.31,6.57,0,6.63s2.69-.28,3.39.18c.27.08.63.3.91,0,.45-.49,1.79-.22,2.5-.67S207,352.1,205.83,352.06Zm24.7-70.4a3.79,3.79,0,0,0-1.32-.09,1.41,1.41,0,0,0,0,.21c.12.84-.42,3-1,3s-1.09.91-1.57.79-1.15.72-1.75.36-1.45.12-1.94-.18-1.87-.06-1.87-.42.67-.25.67-1.33,1.81-2.3,1.57-2.72-3.32-1.33-3.75-1.87a2.93,2.93,0,0,0-2.23-1.15c-1.21-.12-1.15-.72-2.23-1.38a10.8,10.8,0,0,1-2.79-2.86c-.74-.08-1.78-.23-2,0s-.77,2-1.19,1.18-1.42-.83-2.32-.95-.83-1-1.78.06a8.08,8.08,0,0,1-1.47,1.22,8.33,8.33,0,0,1-.41,2.35c-.24.42-2.24,1.33-2.3,1.81s.25,1.15-.12,1.45.85,1.81.18,2.17.49,1,.06,1.33-1.2.54-1.2,1-.06,1.45-.61,1.69a2.14,2.14,0,0,0-.9,1.81c0,.66-.85.24-.54,1.08s.66,1.88,0,2.06-.49,1.57-.85,1.57-.54,1.44,0,2.17a3,3,0,0,1,.66,2c0,.66.73,1,.49,1.75s-.12,1.39-.55,1.69-.06,1.21-.6,1.45.42,2.17,0,2.53-1.51.67-1.51,2a16.84,16.84,0,0,1,.06,2.65c-.12.48.61.36.48,1.15s-1.08.3-1.14.78.24,1.45-.12,1.51-.55.42-.55,1.27-.48,1-.54,1.39.42.9.42,1.39.3,2.11-.12,2.17-.66,1.87-.3,2.11a.84.84,0,0,1,.18,1.09c-.18.36.85.72.3,1.27s-.11,1.24.61,1,1,.91.3.91-1.33,0-.79.42,1.09,1,.31,1.33-.12.84-.31,1.57.55,1.38-.06,1.57.25,1.26-.6,1.38-.3.91-.84,1.33.72,1.15,0,1.57-.18,1.39-.84,1.39-1,.9-1.09,1.33-.48,1.27.06,1.87-.12,1.08.37,1.33,2.11-.13,1.87.6-.18,2.29.12,2.29.48.91,1,.85a13.79,13.79,0,0,1,3.57-.06,2.7,2.7,0,0,1,1.08.62c.52-.23,1.65.51,1.91.26s-1.12-1.48-1.07-1.88-.23-1.07-.23-1.51-.22-1.43.4-1.88.67-.89,1.07-.8,1.21-.35,1.25-1.42.54-1.48,1.43-2.23,2.58-1.61,2.36-2,.36-1.51.36-2-1.52-.35-2-.53-2.27-1.43-1.38-3.08a4,4,0,0,1,3.3-1.87c.53-.05,0-.8.49-1.07s.54-.71.54-1.38,0-2,.8-2,1-.54.53-.67-.71-.72.09-.81.54.67,1.12.67,1.56-1,.8-1.56-1,.27-1.38.36-.72-.54-1.12-.54-.13-1.11-.31-1.51-.45-1.38-.09-1.88,1.87.76,3.21.85,2.32-.67,2.32-1.16-.62-1.38.18-1.91.13-.72-.09-1.43.36-1.16.71-.8,3,.13,5.17-.31,3.71-1.25,3.84-1.88,1.51-2.09,1.83-2.63,0-1.2-.85-1.34-.85-1.16-.36-1.73-.26-1.12-1.11-1.21-2.19-.67-1.43-1.38c.37-.35.54-.28.72-.12.13-.34.25-.74.15-.84s-.63,0-.58-1.22.49-1,.54-2.62.67-2.58.67-3.44,1.54-1.85,2.4-3.25a15.25,15.25,0,0,1,3.48-3.66c.77-.5,2.26-.9,2.44-1.35S230.9,281.84,230.53,281.66Z"/><path class="cls-4" d="M194.15,344.91c-.48.06-.66-.85-1-.85s-.36-1.57-.12-2.29-1.39-.36-1.87-.6.18-.73-.37-1.33-.12-1.45-.06-1.87.43-1.33,1.09-1.33.18-1,.84-1.39-.6-1.15,0-1.57,0-1.21.84-1.33,0-1.2.6-1.38-.12-.85.06-1.57-.48-1.27.31-1.57.24-.91-.31-1.33.12-.42.79-.42.3-1.09-.3-.91-1.15-.48-.61-1-.48-.91-.3-1.27a.84.84,0,0,0-.18-1.09c-.36-.24-.12-2.05.3-2.11s.12-1.69.12-2.17-.48-1-.42-1.39.54-.55.54-1.39.18-1.21.55-1.27.06-1,.12-1.51,1,0,1.14-.78-.6-.67-.48-1.15a16.84,16.84,0,0,0-.06-2.65c0-1.33,1.09-1.63,1.51-2s-.54-2.29,0-2.53.18-1.15.6-1.45.31-1,.55-1.69-.49-1.09-.49-1.75a3,3,0,0,0-.66-2c-.54-.73-.36-2.17,0-2.17s.18-1.39.85-1.57.3-1.21,0-2.06.54-.42.54-1.08a2.14,2.14,0,0,1,.9-1.81c.55-.24.61-1.27.61-1.69s.78-.61,1.2-1-.72-1-.06-1.33-.54-1.87-.18-2.17.06-1,.12-1.45,2.06-1.39,2.3-1.81a8.33,8.33,0,0,0,.41-2.35c-.62.4-1.17.62-1.26.39-.18-.42,0-1.67-.48-2.2s-.18-1.61-.71-1.84-1.19-1.31-.72-1.67,0-1.07.42-1.43-.24-.41-.83-1.13.24-1.6-.48-2.14-.71-1.18-.89-.89-.24,1.31-.83,1.61a2.65,2.65,0,0,0-.44.32,6,6,0,0,0,0,1.8,16.4,16.4,0,0,1,.14,5.18,26.15,26.15,0,0,1-.81,3c-.26.76.63.8.27,1.16s-.22,1.25-.22,2.67-.85,3.84-.89,4.59-.63,1.25-.54,2.1a1.9,1.9,0,0,1-.89,1.74c-.49.4.8,1.69.76,2.41s-1,1-.76,2.18a22.71,22.71,0,0,1,0,4.42c0,.49-.58.44-.45,1.38s-.58,1.16-.71,2.49A19.09,19.09,0,0,1,191.7,306c-.4,1-.4,1.61-.94,1.61s-.67.58-.27,1.47-.26,1.65.27,2.54.36,1.21.09,2.05-.62.9-.62,1.7-.63,1.47-.27,2.36.27,1.21-.18,1.21-.67.71-.85,2.18-.13,1.43.94,1.34.22-3.61.89-3.61.09-.58.76-.76.09.62.54.76.75.49.13.89.13,1.2-.18,1.69-.76,1-.49,1.61-.31.53-.36,1.29.41.8.09,1,.4.76,0,.85-.18.67.09,1.2-.58.22-1,.58.45.85.18,1.34-1-.27-1.29-.54.49-.8.89-1.33-.4-1.74-1.07-1.48.67,1,.67,1.61-1.12-.13-1.07.49-.76.4-1.16.85.53.85.09,1-1.21.76-1.25,1.2.49.54.49.09.71-.58.94,0,.53,0,1.16.14.53,1.07.17,1-.71.58-.62,1.25,1.34,0,1.87.18.36,1.11,0,.8-1-.85-1.34-.31-.8.27-1.2.09-1.83.76-1.34,1.11.44.94.76.89a1.38,1.38,0,0,0,1-.62c.17-.36.8-.71.84.09s-.84.4-1,.85a3,3,0,0,1-1.07,1.2.48.48,0,0,0,.44.85c.45-.23-.13.53.49.62s.76-.36.63-.8.31-1.43.85-.94-.27,1-.27,1.43-.31,1-.31,1.51-.58.23-.54.76-1.25.18-.67.54-.35.85,0,1.2.58-.49,1.07-.31.4.31,1,0,1,.49.4.67-1.2.85-.93.94,1-.45,1.2.13.63.4.67-.22,1.12-.09,1.29.45-1.11.84-1.78.71-1,.62-.58,1.2,1,0,1.47-.49,2.9-.35,3.08.18-1.12.09-1.25.4-1.11.58-1.25.23-1.07.13-1.11.71-.76.58,0,.8.58-.85,1.83-.76,1.92-1.16,2.27-.44-1,1.29-1.51.84-1.07.32-1,1-1.42-.18-2.14-.27-.4.67.22,1.34,1-.09,1.74.4.76,1,1.3.53,0-.44-.36-.67,0-1,.8-.58a1.15,1.15,0,0,0,1.56-1.42c-.26-1.07.76-1.56,1.79-1.92s.49.67-.27,1-.89.54-.31,1.16,1.33-.4,1.83.09-.9.4-1.12.89.85,1.07.09,1.43-.4-1.47-.85-1.65-.84.22-.4,1.25-.53.13-1-.36-1.07.22-.53.76-1-.05-1,.8.67.13,1.47.31.45,1.34,1,1.79.09-1.43.71-1.56,0,1.42,1.43,1.87.09-.27.71-.72,1.43,1.34,2.1,1.52.22-.8-.27-1.34.49-.22,1.16,0,1.2.31,1.34-.18c0-.18.17-.18.33-.12-.7-.46-3.06-.13-3.39-.18s-.07-5.4,0-6.63l-.14,0c-.58,0-1.88.13-1.65-.76a.39.39,0,0,1,.23-.3,2.7,2.7,0,0,0-1.08-.62A13.79,13.79,0,0,0,194.15,344.91Z"/><path class="cls-2" d="M229.4,278c-.72-.36-1.45.36-1.69.36s-.78-1.57-1-2.23-.91-2-1.39-1.69-.36-.12-1.75-.18-1.33-.3-1-1.63-.9-2.17-.36-2.47.37-.49-.09-1.08a.64.64,0,0,1-.33.12c-.48,0-1.08-.83-1.91-.83a5.67,5.67,0,0,0-2.32.24c-.59.29-1.72-.06-2.43.41s-1.61,1.49-1.55,1.9-.24,3-.59,3.1a2.8,2.8,0,0,1-.69,0,10.8,10.8,0,0,0,2.79,2.86c1.08.66,1,1.26,2.23,1.38a2.93,2.93,0,0,1,2.23,1.15c.43.54,3.51,1.45,3.75,1.87s-1.57,1.63-1.57,2.72-.67,1-.67,1.33,1.39.12,1.87.42,1.33-.18,1.94.18,1.26-.48,1.75-.36,1-.85,1.57-.79,1.14-2.11,1-3S230.13,278.33,229.4,278Z"/><path class="cls-4" d="M172,210.4a1.69,1.69,0,0,1,.3-1.27,26.62,26.62,0,0,1-2-2.48,1.39,1.39,0,0,1-1-.12c-.44-.33-1.55-.1-2-.33a2.54,2.54,0,0,0-1.11-.06.69.69,0,0,1-.15.79,1.08,1.08,0,0,0,.53,1.74c1,.4.67-.23,1.16-.23s.45.76.89.76,1.47.54,1.43,1.25.36,1,1.16,1l.49,0C171.81,211,172,210.65,172,210.4Z"/><path class="cls-4" d="M182.16,210.41c-.72-1.07-2-1-2.81-1.34s-1.83.13-2.86,1.07-2.31.4-3.21-.09a5.76,5.76,0,0,1-1-.92,1.69,1.69,0,0,0-.3,1.27c.07.25-.14.64-.27,1.11a4.31,4.31,0,0,1,2.59,1.17c.66.8,1.07.27,1.47,1s1.33,0,1.56-.4-.49-.62-.58-1.11.89-.32,1.07-1,1.6-1,2.23-.71,1.16.71.58,1.38c-.43.5.45,1.4,1.18,2.1a16.52,16.52,0,0,1,1.36-1.32,1.06,1.06,0,0,0,.27-.63A5.3,5.3,0,0,1,182.16,210.41Z"/><path class="cls-4" d="M183.4,227.88a1.48,1.48,0,0,0,1.53,0c.19-.23.7.28,1.44,1.11l.09.11a3.08,3.08,0,0,1,1.74-.06c.55.35.41,1.61,1.18,1.68s1.33.84,1.26,1.26.84.63.77,1.26,2,.49,2.31.28a1.2,1.2,0,0,1,1.19-.14c.35.21,1-.21,1.33-.07s1.75.7,1.47,1.19-1.26,1.26-1.05,1.68.9.54,1.2.95h.1c.53-.12.77-2.14.77-2.74a15.38,15.38,0,0,1,.41-2.74c.34-1.17-1.29-2-1.29-3.26s.65-.56,1.37-1.08,0-.75-.4-.83a1,1,0,0,1-.52-1.1c.12-.39,2.33-.22,3-.22a5.82,5.82,0,0,0,2.25-.75.9.9,0,0,0-.36-1c-.54-.43-.34-1,.08-1.51s-.26-1-.78-1.55-.12-2.69.48-3.68-1.23-.76-2.35-.62a3,3,0,0,1-2.82-1.23c-.72-.92-1.71-.34-3.43-.3s-1.39-1.91-1.31-2.65-.89-.85-.89-1.33-.5-.48-.94-.44,0-.55.3-.93.28-.68.3-1.49,1.19-1.48,1.77-2.27a1.18,1.18,0,0,1,.61-.39.6.6,0,0,1,.49-.39c.89-.18,1.34-.76.49-1.25s-1.34.94-2.27,1.07-1.12.71-1.74,1-1.78,0-1.83.58-.4,0-.94-.14-1.91,1.07-1.87,1.74.27,1.3-.71,1.92a9,9,0,0,0-2,2.32.34.34,0,0,1-.44.1,1.06,1.06,0,0,1-.27.63,16.52,16.52,0,0,0-1.36,1.32c.25.24.49.45.65.62.62.67.22,1.21.4,1.56s.35.89,0,1.12-.05,2.67.35,3.12,0,.85-.44,1.74-.85,1.29-1.65,1.33-.76,1.3-1,1.3-.37.45-.4.84a7.18,7.18,0,0,0,2.48,1.39C182.56,227,182.84,227.55,183.4,227.88Z"/><path class="cls-2" d="M223,265.07c-.29-.89-1.18-1-1.18-2s-.36-1.07-1.67-1-2.14-.24-2.2-1-.83-1.37-.24-1.67-.41-.83-.29-1.55-.36-1-.78-1.36-2.2.18-2.2-.48-1.07-.77-1.66-.77-.18-.77-.83-.71-.54-.42-1.43-.3-1.43-.3-2.38-1.43a5.23,5.23,0,0,1-.65-3.92c.18-.6-1.13-.12-1.9-.12a5.49,5.49,0,0,0-2.38,1.07c-.84.48-1.31.48-1.73.89a1.63,1.63,0,0,1-1.72.42,2.89,2.89,0,0,0-.67-.15c.35.87,1.19,2.31,1.38,2.82s-.29.83-.53,1.07.12,2.38.18,2.86-.84,1.36-.48,1.66-.47,1.19-.47,1.73.77.53.77,1a2.92,2.92,0,0,1-1.07,1.6c-.22.13-.22.46-.17.83.12,0,.21.5.82,1s-.12,1.43.48,2.14,1.25.78.83,1.13.06,1.07-.42,1.43.18,1.43.72,1.67.17,1.3.71,1.84.3,1.78.48,2.2,1.78-.6,2.73-1.61.89-.17,1.78-.06,1.91.12,2.32.95.89-.83,1.19-1.18,2.32.12,2.68,0,.65-2.68.59-3.1.83-1.42,1.55-1.9,1.84-.12,2.43-.41a5.67,5.67,0,0,1,2.32-.24c.83,0,1.43.83,1.91.83s1.07-.77.95-1.49S223.28,266,223,265.07Z"/><path class="cls-4" d="M198.61,264.59s0-.06.07-.06c-.05-.37-.05-.7.17-.83a2.92,2.92,0,0,0,1.07-1.6c0-.42-.77-.42-.77-1s.83-1.43.47-1.73.54-1.19.48-1.66-.42-2.62-.18-2.86.77-.41.53-1.07-1-2-1.38-2.82a4.6,4.6,0,0,0-1.95.09c-.65.24-.47-1.85-.47-2.62s-.66-.35-.89.18-1.19.3-2.14.3-.48-1.19-1.07-1.13-1.07-.18-1-.77-.42-1.07-.84-1.73-.89-1.31-.53-1.72-.24-.78.3-1.31,1.07-.36.89-1.07.59-1.13.65-1.9,1-.54,1.78-1.19,1.73-.3,2.44-.89,1.13-.08,1.63-.12c-.3-.41-1-.62-1.2-.95s.77-1.19,1.05-1.68-1.12-1.05-1.47-1.19-1,.28-1.33.07a1.2,1.2,0,0,0-1.19.14c-.28.21-2.38.35-2.31-.28s-.84-.84-.77-1.26-.49-1.19-1.26-1.26-.63-1.33-1.18-1.68a3.08,3.08,0,0,0-1.74.06c.68.75.92,1.07.47,1.43s0,.56-1.11,2-3,1.86-3.95,2.14-1.31,2-1.82,3.21-.93.79-1.44.09-.93.14-1.53-.42-.33-.55,0-1c.17-.25,0-.65-.39-1-.67.13-1.34,1.05-1.67,1.75s.63,2.23.76,2.77-.53,0-.62.53,1.47,1.2,2.18,1.74,1.34,2,2,2.76.71,1.34,1.43,3.08a32.09,32.09,0,0,0,3.12,5.93c1,1.25,1.42,2.23,1.2,2.59a1.71,1.71,0,0,0,.76,1.83,15.79,15.79,0,0,0,3.16,2.22c1.88.94,5.31,2.72,5.8,3.57a7.14,7.14,0,0,0,2.41,1.83c.08.05.11.19.11.38a2.65,2.65,0,0,1,.44-.32C198.37,265.9,198.43,264.89,198.61,264.59Z"/><path class="cls-4" d="M193.63,205.39c-.58.79-1.75,1.47-1.77,2.27s0,1.11-.3,1.49-.74,1-.3.93.94,0,.94.44,1,.58.89,1.33-.42,2.69,1.31,2.65,2.71-.62,3.43.3a3,3,0,0,0,2.82,1.23c1.12-.14,2.95-.36,2.35.62s-1,3.1-.48,3.68,1.2,1.07.78,1.55-.62,1.08-.08,1.51a.9.9,0,0,1,.36,1s-.11.09-.28.17c.8.79,1.09,1.67,1.54,2s.78.72,1.2.48.73-.42,1.09-.18.85-.24,1.39-.72,1.15-.06,1.33-.67a1.34,1.34,0,0,1,1.14-1.08c.67-.12.67-.85.25-.85s-1,.54-1-.24-.54-.61-.54-1.27a1.42,1.42,0,0,0-.79-1.51c-.72-.42,1-.6,1.33-.24s1.63.06,1.75.6.78.73.78.06.79-.9,1.39-.78,1.93-.78,2.48-1c.28-.09.38-.43.54-.72a13.82,13.82,0,0,0-1.32-1.62c-.43-.36.29-.57.22-1.08s0-.87.94-.94.79-.8.29-1.08.21-1.09.72-1.38a2.48,2.48,0,0,0,.74-1,8.2,8.2,0,0,0-2.92-.3c-.76.05.49-.84.54-1.65s-2.14-.93-3-1.11-.63-1.07.27-1.11-.49-.67-1.7-.5a13.78,13.78,0,0,0-3.88,1.39c-1,.53-2.67-1.56-3.79-1.12s-2.67.45-2.63-.44a1.35,1.35,0,0,0-1.56-1.56c-1.11.08-.85-1.12-1.69-1.12s0,1-.58,1.29-2.59.76-2.72,1.56,1.07,2.15.67,3-1.74.13-2.14-.72,1.16-2.14.89-2.63a1.93,1.93,0,0,1-.27-1.39A1.18,1.18,0,0,0,193.63,205.39Z"/><path class="cls-4" d="M224.14,217.77c.29.58-.36.87-.94.94s-.43,1.37-.79,1.73,1.37,1.3,1.66,2.1a19.06,19.06,0,0,0,1.19,2.25,1.49,1.49,0,0,0,1,.07c.55-.3.06-1.33.85-1.27s1.93-.42,2.23.06a2.56,2.56,0,0,0,.2.26c.25-.38.52-.8.59-.94a5.1,5.1,0,0,0-.21-2.67,2.4,2.4,0,0,1,.36-2.39,3.36,3.36,0,0,0,.39-1,4.39,4.39,0,0,0-2-.45c-1.07.13-2.18.62-2.58,0s-1-.49-1.52,0a.24.24,0,0,1-.2,0C224.18,217,224,217.48,224.14,217.77Z"/><path class="cls-4" d="M218,212.42c-.51.29-1.23,1.09-.72,1.38s.65,1-.29,1.08-1,.43-.94.94-.65.72-.22,1.08a13.82,13.82,0,0,1,1.32,1.62.64.64,0,0,1,.72-.42c.85.12.18,1.39.85,1.69a1.06,1.06,0,0,1,.18,1.69c-.48.36-.66,2.35.42,3.56s1.93,1,2.18.72,1.08,0,1.32-.48.55.06,1-.48c.28-.32.86-.15,1.41,0a19.06,19.06,0,0,1-1.19-2.25c-.29-.8-2-1.74-1.66-2.1s.21-1.66.79-1.73,1.23-.36.94-.94c-.15-.29,0-.77.22-1.29-.55,0-1.38-1.66-1.85-1.66a1,1,0,0,1-1-1.2c.14-.76-1.25-.85-2-1.7a1.83,1.83,0,0,0-.74-.46A2.48,2.48,0,0,1,218,212.42Z"/><path class="cls-4" d="M229.92,220.3a5.1,5.1,0,0,1,.21,2.67c-.07.14-.34.56-.59.94a1.54,1.54,0,0,0,1.79.34c1.15-.36,1.69.37,2.12-.9a10.57,10.57,0,0,1,2.37-3.21h0c-.85-.36-2.15-2.41-3.44-2.68a11.21,11.21,0,0,1-1.69-.57,3.36,3.36,0,0,1-.39,1A2.4,2.4,0,0,0,229.92,220.3Z"/><path class="cls-4" d="M185.41,184.9c-1.34,0-5.7-3-9.72-3.92s-7.51,2-7.13,2.5c.53.71,2.5-.9,3.48-1.61s1.87.36,2,.8,1.34.72,3.39.81,2.32,1.78,4.28,2.22,0,1.25,1,1.61,6.15.27,6.51-.18S186.75,184.9,185.41,184.9Z"/><path class="cls-4" d="M180.86,191.06c.36.62,3.75,1.51,4.11.71S180.42,190.28,180.86,191.06Z"/><path class="cls-4" d="M203.78,191.23c.8,1.25,3.1.51,3.3,0C207.44,190.34,203,190,203.78,191.23Z"/><path class="cls-4" d="M186.37,229c-.74-.83-1.25-1.34-1.44-1.11a1.48,1.48,0,0,1-1.53,0c-.56-.33-.84-.93-1.26-.93a7.18,7.18,0,0,1-2.48-1.39,1.22,1.22,0,0,0,0,.27c.05.4-.62.67-1.38.72s-.67.89-.67,1.47-.62.58-.89,1.2.09.76-.54,1.07a.89.89,0,0,0-.44,1.38c.35.54-.05,1-.14,1.34s.54.45,1.16,1,.72-.23,1,.22a.93.93,0,0,1-.89,1.25.45.45,0,0,0-.16,0c.37.38.56.78.39,1-.33.47-.61.47,0,1s1-.28,1.53.42.93,1.12,1.44-.09.89-2.93,1.82-3.21,2.83-.65,3.95-2.14.52-1.57,1.11-2S187.12,229.83,186.37,229Z"/><path class="cls-4" d="M182.57,179.4c-.12.26-.79-.35-.8-.81s-.69-.55-.69-1.35.33-1.29.74-.59.14,1.17.2,1.51S182.8,178.93,182.57,179.4Z"/><path class="cls-4" d="M214.69,208.17c-.26-.24.4-.73-.05-.94s1-.81,1.48-.41.52,1,.1,1.17S214.93,208.4,214.69,208.17Z"/></g></g></svg>