<svg xmlns="http://www.w3.org/2000/svg" viewBox="0 0 61.42 38.39"><defs><style>.cls-1{fill:#97d6ff;stroke:#fff;stroke-miterlimit:10;stroke-width:0.25px;}</style></defs><title>Icon_mexico</title><g id="Capa_2" data-name="Capa 2"><g id="Objects"><path class="cls-1" d="M51.16,36c.22,0,2.45.26,2.67-.3s-1.68-1.81-1.46-1.94.3-1.5.64-1.5,3.49.08,3.66,0S57.44,31.08,58,31c.24,0,.61.27.94.58a4.74,4.74,0,0,0,.89-2.72c.14-1.21-.27-1.61.36-2.28s1.29-.71,1.11-1.65-1,0-1.74-.44-1.33-.14-3.16.13-2.68,1-2.59,2.32-.62.71-.58,1.83S51.77,30,51.86,30.64s-1.16,0-1.52-.23-4.19.94-4.73,1-1.51-1.12-2.27-1.07-1.07-1.12-1.16-2.05S40.66,26.53,40,25.69s-.71-2.72-.76-3.93A14.07,14.07,0,0,1,40,16.14a2.9,2.9,0,0,0,.18-.83,1.61,1.61,0,0,0-.84-.32c-.76,0-2.47-1-2.81-1s-.28-.81-.57-1.24-.09-1.24-.47-1.52a5.92,5.92,0,0,1-1.91-2.72c-.38-1.33-2.71-2-3.57-2s-1.34,1.76-1.57,1.85a11.73,11.73,0,0,1-2.34-1.19,1.36,1.36,0,0,1-.71-1.28c0-.58-1-1.48-1.29-1.58a26,26,0,0,1-2.28-2H18.62L18,3.08l-5.72,0S7.86,1.51,7.05,1.32A9.58,9.58,0,0,1,4.81.13L.19.74A7.69,7.69,0,0,0,1.25,2.41,10,10,0,0,1,2.94,6.33c.09.72,1.39,1.3,2.5,2a2.65,2.65,0,0,1,1,2.68c-.13.4-1.51-.27-1.6.13s1.78,2,2.49,1.87,1.07.36,2.19,1.34,1,2.14.58,2.5S11,18,12.4,18.91a5.11,5.11,0,0,1,2.14,2.58c.13.49.75.05,1-.62s-.45-.85-.45-1.61-1.16-.62-1.69-.71,0-1.25-.49-1.78a7.73,7.73,0,0,1-1.3-2.86c-.26-1-1.65-2-2.23-3A7,7,0,0,0,7.76,8.7c-.4-.27.58-.67.22-1.07S7.09,7.27,6.42,7A1.72,1.72,0,0,1,5.31,5.4a12.8,12.8,0,0,0-.67-3c-.23-.58.49-.49.71-.22s.4.53.72.36A.8.8,0,0,1,7.14,3c.22.49,1,0,1.33.27s-.8.49.36,2.54.36.89.36,2.27.71.76.93.54.85.44,1.43,1.16,1.69.76,1.69,1.16a1.32,1.32,0,0,0,1,1.33c.76.14.9,1,1.39,1.08s.58.62.31,1.2,0,1.07,1.25,1.56.67.58,1.65,1.52a57,57,0,0,1,4.32,4.81,8.08,8.08,0,0,1,1,2.18c.23.63-.44.94-.09,1.48s-.67.31-.62.71S24,29.21,25,29.3s2.1,1.29,2.9,2,2,.53,3.21,1,2.23,1.52,4,2a17.91,17.91,0,0,1,4.55,2c1.11.71,2.5.4,4.06-.23s2.76.18,3.65.54a11.94,11.94,0,0,1,2.17,1.68A17,17,0,0,1,51.16,36Z"/></g></g></svg>