<svg xmlns="http://www.w3.org/2000/svg" viewBox="0 0 8.74 9.03"><defs><style>.cls-1{fill:#9013fe;stroke:#fff;stroke-miterlimit:10;stroke-width:0.25px;}</style></defs><title>Icon_nicaragua</title><g id="Capa_2" data-name="Capa 2"><g id="Objects"><path class="cls-1" d="M4.7,8.43c.44.22,1.55,0,2,.33a1.42,1.42,0,0,0,1,.11,3.66,3.66,0,0,1-.28-.43c-.31-.58.22-1.74.49-2.58S7.68,3,8.17,2.42s.22-.84.44-2.09a.7.7,0,0,0,0-.2c-1,0-2,.9-2.35.94S4.5.77,4.33,1.5s-1,.86-2.19,1-.56,1.07-.65,1.24a3.12,3.12,0,0,1-.6.56l-.75.18a.65.65,0,0,0,.31.76c.72.4,1.7,2,2.45,2.36a1.36,1.36,0,0,1,.69.82A2.54,2.54,0,0,1,4.7,8.43Z"/></g></g></svg>