<svg xmlns="http://www.w3.org/2000/svg" viewBox="0 0 17.71 17.89"><defs><style>.cls-1{fill:#9013fe;stroke:#fff;stroke-miterlimit:10;stroke-width:0.25px;}</style></defs><title>Icon_paraguay</title><g id="Capa_2" data-name="Capa 2"><g id="Objects"><path class="cls-1" d="M17.33,9.76c-.73-.36-1.45.36-1.69.36s-.79-1.56-1-2.23-.9-2-1.39-1.69-.36-.12-1.75-.18-1.32-.3-1-1.63-.91-2.17-.37-2.47.38-.49-.08-1.08A.59.59,0,0,1,9.72,1C9.24,1,8.65.13,7.82.13A5.63,5.63,0,0,0,5.5.37C4.9.67,3.77.31,3.06.79s-1.6,1.48-1.54,1.9-.24,3-.6,3.09a2.8,2.8,0,0,1-.69,0A11,11,0,0,0,3,8.62c1.09.66,1,1.26,2.24,1.39a2.91,2.91,0,0,1,2.23,1.14c.42.55,3.5,1.45,3.74,1.87s-1.57,1.63-1.57,2.72S9,16.71,9,17.07s1.39.12,1.87.42,1.33-.18,1.93.18,1.27-.48,1.75-.36,1-.85,1.57-.79,1.15-2.11,1-2.95S18.05,10.12,17.33,9.76Z"/></g></g></svg>