<svg xmlns="http://www.w3.org/2000/svg" viewBox="0 0 25.82 37.97"><defs><style>.cls-1{fill:#97d6ff;stroke:#fff;stroke-miterlimit:10;stroke-width:0.25px;}</style></defs><title>Icon_peru</title><g id="Capa_2" data-name="Capa 2"><g id="Objects"><path class="cls-1" d="M23.79,35.78a.1.1,0,0,1,.07-.06c-.06-.37-.05-.7.17-.83a2.92,2.92,0,0,0,1.07-1.6c0-.42-.78-.42-.78-.95s.84-1.43.48-1.73.53-1.19.48-1.66-.42-2.62-.18-2.86.77-.41.53-1.07c-.19-.51-1-1.95-1.38-2.82a4.58,4.58,0,0,0-1.95.09c-.65.24-.47-1.85-.47-2.62s-.66-.35-.89.18-1.19.3-2.14.3S18.32,19,17.73,19s-1.08-.18-1-.78-.42-1.06-.84-1.72-.89-1.31-.53-1.72-.24-.78.29-1.31,1.08-.36.9-1.07.59-1.13.65-1.9S18.14,10,19,9.33s1.73-.3,2.44-.89,1.13-.08,1.63-.12c-.3-.41-1-.62-1.2-1s.77-1.19,1.05-1.68S21.77,4.64,21.42,4.5s-1,.28-1.33.07a1.2,1.2,0,0,0-1.19.14c-.28.21-2.38.35-2.31-.28s-.84-.84-.77-1.26S15.33,2,14.56,1.91,13.93.58,13.37.23a3,3,0,0,0-1.73.06c.67.75.91,1.07.47,1.43s0,.56-1.11,2S8,5.62,7,5.9s-1.3,2-1.81,3.21-.93.79-1.44.09-.93.14-1.53-.42-.33-.55,0-1c.17-.25,0-.65-.39-1C1.2,6.86.53,7.78.2,8.48s.63,2.23.76,2.77-.53,0-.62.53S1.81,13,2.52,13.52s1.34,2.05,2,2.76S5.24,17.62,6,19.36a32.11,32.11,0,0,0,3.13,5.93c1,1.25,1.42,2.23,1.2,2.59A1.7,1.7,0,0,0,11,29.7a15.31,15.31,0,0,0,3.16,2.23c1.88.94,5.31,2.72,5.8,3.57a7,7,0,0,0,2.41,1.83c.08.05.11.19.11.37a2.63,2.63,0,0,1,.44-.31C23.55,37.09,23.61,36.08,23.79,35.78Z"/></g></g></svg>