<svg xmlns="http://www.w3.org/2000/svg" viewBox="0 0 10.29 10.86"><defs><style>.cls-1{fill:#97d6ff;stroke:#fff;stroke-miterlimit:10;stroke-width:0.25px;}</style></defs><title>Icon_uruguay</title><g id="Capa_2" data-name="Capa 2"><g id="Objects"><path class="cls-1" d="M9.93,5.24c0-1-1-1.22-1.35-1.58s-1.72-1-2.26-1.72-.86.27-1.13.32S5,1.67,4.28.85,3,0,2.57.22a1.13,1.13,0,0,1-.6,0A2,2,0,0,0,1.35,1.4c0,.86-.64,1.8-.68,3.43S.17,6.18.13,7.45s.4,1,.58,1.22,0,.5-.14.84c.19.17.37.43.79.39A5,5,0,0,1,4,10.57c1,.44.62-.14,1.56,0a4.39,4.39,0,0,0,3-.4,6.92,6.92,0,0,0,1.6-1.88A6.25,6.25,0,0,1,9.93,5.24Z"/></g></g></svg>