<?xml version="1.0" encoding="UTF-8"?>
<svg width="48px" height="48px" viewBox="0 0 48 48" version="1.1" xmlns="http://www.w3.org/2000/svg" xmlns:xlink="http://www.w3.org/1999/xlink">
    <!-- Generator: Sketch 52.2 (67145) - http://www.bohemiancoding.com/sketch -->
    <title>Group 22</title>
    <desc>Created with Sketch.</desc>
    <g id="Page-1" stroke="none" stroke-width="1" fill="none" fill-rule="evenodd">
        <g id="Update" transform="translate(-441.000000, -3874.000000)">
            <g id="Group-22" transform="translate(441.000000, 3874.000000)">
                <circle id="Oval" fill="#2778FD" fill-rule="nonzero" cx="24" cy="24" r="24"></circle>
                <g id="support" transform="translate(9.000000, 10.000000)" fill="#FFFFFF">
                    <path d="M30.5050757,19.6289848 L29.0300679,18.1743067 C28.7930055,17.9405127 28.41037,17.942135 28.1753018,18.1777917 C27.9401731,18.4134483 27.9418047,18.7939719 28.1788067,19.0277059 L29.653754,20.482384 C29.7715903,20.5986501 29.9255026,20.656693 30.0793544,20.656693 C30.2348378,20.656693 30.3903213,20.5973883 30.5084597,20.478899 C30.7436488,20.2432423 30.7420776,19.8627187 30.5050757,19.6289848 Z" id="Path"></path>
                    <path d="M28.032548,17.1760215 C27.7965129,16.9413262 27.4139379,16.9413262 27.1777819,17.1760215 L27.1767546,17.1770429 C26.9407195,17.4117382 26.9412634,17.7917811 27.1772985,18.0264764 C27.2951347,18.1437039 27.4497722,18.2022876 27.6043492,18.2022876 C27.7592887,18.2022876 27.9143492,18.1434635 28.0324876,18.0259957 C28.2685227,17.7913004 28.2685227,17.4107768 28.032548,17.1760215 Z" id="Path"></path>
                    <path d="M22.6302115,19.8005665 L28.4935019,13.970618 C29.3815039,13.0875966 29.3815039,11.650824 28.4934415,10.7678026 C28.1802992,10.4564378 27.797845,10.2553906 27.3950263,10.1636395 C27.5331667,9.86837768 27.6062856,9.54433476 27.6062856,9.20899571 C27.6062856,8.6040515 27.3693441,8.03533906 26.9392115,7.60764807 C26.6018372,7.27212876 26.1770828,7.05545923 25.7160712,6.97740773 C25.9756131,6.19112446 25.7921511,5.29061803 25.1644766,4.66656652 C24.8193674,4.32347639 24.3901413,4.11437768 23.9421823,4.0379485 C24.0172349,3.81148498 24.0568158,3.57234335 24.0568158,3.32695279 C24.0568158,2.72200858 23.8198743,2.15329614 23.3897417,1.72560515 C22.9595487,1.29791416 22.3875897,1.0623176 21.7792524,1.0623176 C21.3929308,1.0623176 21.0214747,1.15761373 20.6914727,1.33654936 L20.6331589,1.27424034 C19.8752602,0.464403433 18.8024669,0 17.6900322,0 L12.9439503,0 C12.6102018,0 12.3395409,0.269124464 12.3395409,0.600978541 L12.3395409,1.38906438 C12.3395409,1.70445494 12.3932018,2.01149356 12.4958099,2.30020601 C12.2224298,2.18730472 11.9266306,2.128 11.6217066,2.128 C11.013309,2.128 10.4413499,2.36359657 10.0111569,2.79128755 C9.38318031,3.41569957 9.19989961,4.31686695 9.46004581,5.10339056 C9.01172417,5.17963948 8.58189376,5.38885837 8.23648246,5.73224893 C7.8063499,6.16 7.56940838,6.72871245 7.56940838,7.33359657 C7.56940838,7.57850644 7.60886842,7.81728755 7.68361891,8.04327039 C7.22315107,8.12156223 6.79881969,8.33811159 6.46174756,8.67333047 C5.76820565,9.36293562 5.61634795,10.3904034 6.00617446,11.2279399 C5.59338499,11.3217339 5.21425439,11.5284292 4.90739669,11.833485 C4.01939474,12.7164464 4.01939474,14.1532189 4.90739669,15.0362403 L6.11319396,16.235133 L0.177026316,22.137485 C-0.0590087719,22.3721803 -0.0590087719,22.7527039 0.177026316,22.9874592 C0.29504386,23.1047468 0.449741715,23.1635107 0.604379142,23.1635107 C0.759016569,23.1635107 0.913714425,23.1048069 1.03173197,22.9874592 L7.02518616,17.0280258 C7.36449415,17.2205408 7.74954678,17.3235279 8.15085478,17.3235279 C8.75919201,17.3235279 9.33115107,17.0879313 9.76134405,16.6601803 C10.2287008,16.1955365 10.4497495,15.5774335 10.425155,14.9674421 C10.4557924,14.9687039 10.4864298,14.9696052 10.5170673,14.9696052 C11.1002057,14.9695451 11.6836462,14.7487897 12.1275565,14.3073991 C12.5576891,13.8796481 12.7946306,13.3109356 12.7946306,12.7060515 C12.7946306,12.6754678 12.7936033,12.6450644 12.7923947,12.6146609 C12.8226696,12.6158627 12.8529444,12.616824 12.8832797,12.616824 C13.4664786,12.616824 14.0497982,12.3960687 14.493769,11.954618 C14.9239016,11.526867 15.1608431,10.9581545 15.1608431,10.3532704 C15.1608431,10.3226867 15.1598158,10.2922833 15.1586072,10.2618798 C15.1888821,10.2630815 15.2191569,10.2640429 15.2494922,10.2640429 C15.8327515,10.2640429 16.4160107,10.0432876 16.8599815,9.60183691 C17.694383,8.77217167 17.7445994,7.45370815 17.0110536,6.56497854 L21.0231667,2.57563948 C21.2250595,2.37483262 21.4933635,2.26433476 21.7788899,2.26433476 C22.0644162,2.26433476 22.3327807,2.37483262 22.5346735,2.57563948 C22.7365663,2.77638627 22.8476949,3.04316738 22.8476949,3.32707296 C22.8476949,3.61091845 22.7365663,3.87781974 22.5346131,4.07850644 L21.943075,4.6666867 L19.7967632,6.80081545 C19.5607281,7.03551073 19.5607281,7.41603433 19.7967632,7.6507897 C19.9147807,7.76807725 20.0694786,7.8268412 20.224116,7.8268412 C20.3787534,7.8268412 20.5334513,7.76813734 20.6514688,7.6507897 L22.7977807,5.51666094 C23.2144376,5.10230901 23.8925097,5.10224893 24.3092875,5.51660086 C24.7260049,5.93101288 24.7260049,6.60517597 24.3092875,7.01958798 L23.7176891,7.60782833 L22.1629756,9.15371674 C21.9269405,9.38841202 21.9269405,9.76893562 22.1629756,10.003691 C22.2809932,10.1209785 22.435691,10.1797425 22.5903285,10.1797425 C22.7449659,10.1797425 22.8996637,10.1210386 23.0176813,10.003691 L24.5723947,8.45780258 C24.7742875,8.25699571 25.042652,8.14649785 25.3281179,8.14649785 C25.6136442,8.14649785 25.8820088,8.25699571 26.0839016,8.45780258 C26.2857943,8.65854936 26.396923,8.92533047 26.396923,9.20923605 C26.396923,9.49308155 26.2857943,9.75998283 26.0838411,9.96066953 L25.2718587,10.7680429 L24.5291277,11.5065579 C24.2930926,11.7412532 24.2930926,12.1217768 24.5291277,12.3565322 C24.6471452,12.4738197 24.8018431,12.5325837 24.9564805,12.5325837 C25.1111179,12.5325837 25.2658158,12.4738798 25.3838333,12.3565322 L26.1271082,11.6174764 C26.543886,11.2037854 27.2215351,11.2038455 27.6380712,11.6180172 C28.0548489,12.0323691 28.0548489,12.7065923 27.6380712,13.1210043 L21.7747807,18.9509528 C20.3024922,20.4149442 18.3457456,21.2624549 16.264999,21.3375622 C16.1120536,21.3430901 15.9667827,21.4061202 15.8587359,21.5140343 L10.4423772,26.9195966 C10.2067651,27.1547124 10.2074298,27.5352361 10.4439483,27.7695107 C10.561845,27.8863176 10.7161803,27.9447811 10.8705156,27.9447811 C11.0255156,27.9447811 11.1806365,27.8858369 11.298654,27.7679485 L15.2825468,23.7920687 C16.2944883,24.4375708 17.4845741,24.7444893 18.6946618,24.6649356 L21.8126696,27.7653047 C21.9306871,27.8825923 22.085385,27.9413562 22.2400224,27.9413562 C22.3947203,27.9413562 22.5493577,27.8826524 22.6673752,27.7653047 C22.9034103,27.5306094 22.9034103,27.1500858 22.6673752,26.9153305 L19.3522485,23.6186609 C19.2267378,23.4939227 19.0523402,23.4301717 18.8754649,23.4445923 L18.683845,23.4602146 C17.799348,23.5323176 16.9250634,23.3396824 16.1617261,22.9143348 L16.5501628,22.526721 C18.8474259,22.3858197 20.9982096,21.4233648 22.6302115,19.8005665 Z M8.9066384,15.8103262 C8.70474561,16.011133 8.43632066,16.1216309 8.1509152,16.1216309 C7.86538889,16.1216309 7.59702437,16.011133 7.39519201,15.8103262 L5.76204191,14.1865064 C5.34532456,13.7721545 5.34532456,13.0979313 5.76204191,12.6835193 C5.9639347,12.4827124 6.23235965,12.3722146 6.51782554,12.3722146 C6.80329142,12.3722146 7.07171637,12.4827124 7.27354873,12.6835193 L8.90669883,14.3073391 C9.32335575,14.721691 9.32335575,15.3959142 8.9066384,15.8103262 Z M11.2729717,13.4574249 C10.856194,13.8717768 10.178001,13.8717768 9.76140448,13.4574249 L8.12825439,11.8335451 L7.3162115,11.0261116 C6.89949415,10.6117597 6.89949415,9.93753648 7.3162115,9.52318455 C7.51810429,9.32237768 7.78652924,9.21187983 8.0719347,9.21187983 C8.35746101,9.21187983 8.62582554,9.32237768 8.82765789,9.52318455 L11.2727904,11.9544378 C11.2727904,11.9544378 11.2727904,11.9544378 11.2728509,11.9544378 C11.4748041,12.1552446 11.5859327,12.4220858 11.5859327,12.7059313 C11.5859327,12.9897768 11.4748041,13.2566781 11.2729717,13.4574249 Z M13.6391842,11.1045837 C13.2224064,11.5188755 12.5442739,11.5189356 12.127617,11.1045837 L9.09088596,8.08509013 C8.88899318,7.88434335 8.77786452,7.61756223 8.77786452,7.33365665 C8.77786452,7.04981116 8.88899318,6.78290987 9.09094639,6.58222318 C9.29930507,6.37504721 9.57304776,6.27145923 9.84666959,6.27145923 C10.1201706,6.27145923 10.3936111,6.37492704 10.6019094,6.58174249 L11.9859717,7.9579485 L13.6390634,9.60165665 L13.6391238,9.60165665 C13.8409561,9.80240343 13.9520848,10.0691845 13.9520848,10.3530901 C13.9522057,10.6369957 13.841077,10.903897 13.6391842,11.1045837 Z M16.0054571,8.75174249 C15.5887398,9.16609442 14.9106676,9.16609442 14.4939503,8.75174249 L11.4572193,5.73224893 C11.4569172,5.7319485 11.4565546,5.73164807 11.456192,5.73128755 L10.8656209,5.14406867 C10.4489035,4.72965665 10.4489035,4.05549356 10.8656209,3.64108155 C11.0739795,3.43384549 11.3477222,3.33025751 11.6214045,3.33025751 C11.8950867,3.33025751 12.1688294,3.43384549 12.3771277,3.64108155 L16.0053363,7.24869528 C16.2072895,7.44944206 16.3184181,7.71628326 16.3184181,8.00012876 C16.3184786,8.28409442 16.2074103,8.55105579 16.0054571,8.75174249 Z M16.164385,5.70707296 L14.5042836,4.05639485 C14.6925195,4.09635193 14.8860731,4.11756223 15.0830712,4.11750215 C15.0874825,4.11750215 15.0919542,4.11750215 15.0964259,4.11750215 L16.755077,4.10975107 C17.0888255,4.10818884 17.3582173,3.83786266 17.3566462,3.5059485 C17.355075,3.17499571 17.0847768,2.90779399 16.7522973,2.90779399 C16.7513304,2.90779399 16.7503635,2.90779399 16.7493967,2.90779399 L15.0907456,2.91554506 C15.0882076,2.91554506 15.0857904,2.91554506 15.0832524,2.91554506 C14.6745721,2.91554506 14.2901842,2.75781974 14.0003674,2.47103004 C13.7087378,2.18237768 13.5481784,1.79818884 13.5481784,1.38900429 L13.5481784,1.201897 L17.6898509,1.201897 C18.4678723,1.201897 19.2180965,1.52666094 19.7481784,2.09303004 L19.7727729,2.11928755 L16.164385,5.70707296 Z" id="Shape" fill-rule="nonzero"></path>
                </g>
            </g>
        </g>
    </g>
</svg>