<?xml version="1.0" encoding="UTF-8"?>
<svg width="40px" height="30px" viewBox="0 0 40 30" version="1.1" xmlns="http://www.w3.org/2000/svg" xmlns:xlink="http://www.w3.org/1999/xlink">
    <!-- Generator: Sketch 52.2 (67145) - http://www.bohemiancoding.com/sketch -->
    <title>Group 3</title>
    <desc>Created with Sketch.</desc>
    <defs>
        <polygon id="path-1" points="0 0 40 0 40 30 0 30"></polygon>
    </defs>
    <g id="Page-1" stroke="none" stroke-width="1" fill="none" fill-rule="evenodd">
        <g id="Update" transform="translate(-1270.000000, -865.000000)">
            <g id="Group-3" transform="translate(1270.000000, 865.000000)">
                <mask id="mask-2" fill="white">
                    <use xlink:href="#path-1"></use>
                </mask>
                <g id="Clip-2"></g>
                <path d="M21.267615,25.2348939 C22.2680521,20.725626 21.1703641,17.1264401 17.5197164,14.5444046 C13.1055248,11.4220699 6.67350239,13.4742156 5.27907465,18.3800334 C4.5265026,21.0289867 5.78827018,24.1488429 8.35319932,24.8740335 C9.54265216,25.2106053 11.3260833,24.7823314 12.3359961,24.0308693 C13.1628778,23.4157213 13.241676,21.8077115 13.2566376,20.4971141 C13.3962799,22.4768895 12.6651529,23.9550292 10.6049308,24.4289063 C8.38062905,24.9404557 6.98071536,23.8216893 6.2256497,21.7487247 C4.85964914,17.9963714 7.97915754,14.090355 12.4487074,13.9902261 C16.8509297,13.8925757 20.5968334,17.5542183 20.7893403,22.1432919 C20.9594046,26.1945447 17.4429132,29.77886 13.0970465,29.9840746 C3.22733083,30.4500207 -2.85259354,20.6116179 1.34964112,10.9630634 C4.08214097,4.6906355 8.87336675,0.858476494 15.6744437,0.155591814 C23.7063674,-0.674684519 30.6191581,1.77401105 35.480205,8.56046674 C38.5079485,12.7871929 39.6300738,17.6399722 39.9856629,22.7465434 C40.1143333,24.5964486 39.3797152,25.4951298 37.6690975,25.9110115 C32.2215531,27.2349925 26.8518094,27.01689 21.267615,25.2348939" id="Fill-1" fill="#064FE2" mask="url(#mask-2)"></path>
            </g>
        </g>
    </g>
</svg>