<?xml version="1.0" encoding="UTF-8"?>
<svg width="22px" height="16px" viewBox="0 0 22 16" version="1.1" xmlns="http://www.w3.org/2000/svg" xmlns:xlink="http://www.w3.org/1999/xlink">
    <!-- Generator: Sketch 52.2 (67145) - http://www.bohemiancoding.com/sketch -->
    <title>Group 3 Copy</title>
    <desc>Created with Sketch.</desc>
    <g id="Page-1" stroke="none" stroke-width="1" fill="none" fill-rule="evenodd">
        <g id="Update" transform="translate(-1281.000000, -1013.000000)" fill="#D9D9D9">
            <g id="Group-3-Copy" transform="translate(1281.000000, 1013.000000)">
                <path d="M11.6971883,13.4586101 C12.2474286,11.0536672 11.6437003,9.13410137 9.63584403,7.75701578 C7.20803861,6.09177061 3.67042631,7.1862483 2.90349106,9.80268448 C2.48957643,11.2154596 3.1835486,12.8793829 4.59425962,13.2661512 C5.24845869,13.4456561 6.22934584,13.2172434 6.78479788,12.8164636 C7.2395828,12.4883847 7.28292178,11.6307795 7.2911507,10.9317942 C7.36795394,11.9876744 6.9658341,12.7760156 5.83271194,13.02875 C4.60934598,13.3015763 3.83939345,12.7049009 3.42410734,11.5993199 C2.67280703,9.59806474 4.38853665,7.51485598 6.84678907,7.46145393 C9.26801135,7.40937371 11.3282584,9.36224974 11.4341371,11.8097557 C11.5276725,13.9704238 9.59360225,15.8820587 7.20337556,15.9915064 C1.77503196,16.240011 -1.56892645,10.9928629 0.742302616,5.84696714 C2.24517753,2.50167227 4.88035171,0.45785413 8.62094402,0.0829823006 C13.0385021,-0.359831744 16.840537,0.946139229 19.5141128,4.56558226 C21.1793717,6.81983621 21.7965406,9.40798516 21.9921146,12.1314898 C22.0628833,13.1181059 21.6588434,13.5974026 20.7180036,13.8192061 C17.7218542,14.5253293 14.7684951,14.409008 11.6971883,13.4586101" id="Fill-1"></path>
            </g>
        </g>
    </g>
</svg>