<?xml version="1.0" encoding="UTF-8"?>
<svg width="48px" height="48px" viewBox="0 0 48 48" version="1.1" xmlns="http://www.w3.org/2000/svg" xmlns:xlink="http://www.w3.org/1999/xlink">
    <!-- Generator: Sketch 52.2 (67145) - http://www.bohemiancoding.com/sketch -->
    <title>Group 23</title>
    <desc>Created with Sketch.</desc>
    <g id="Page-1" stroke="none" stroke-width="1" fill="none" fill-rule="evenodd">
        <g id="Update" transform="translate(-441.000000, -3960.000000)" fill-rule="nonzero">
            <g id="Group-23" transform="translate(441.000000, 3960.000000)">
                <circle id="Oval-Copy-3" fill="#2778FD" transform="translate(24.000000, 24.000000) scale(1, -1) translate(-24.000000, -24.000000) " cx="24" cy="24" r="24"></circle>
                <g id="key" transform="translate(23.697991, 22.355723) scale(1, -1) rotate(68.000000) translate(-23.697991, -22.355723) translate(7.197991, 8.855723)">
                    <g id="Group-16" transform="translate(-0.000000, 0.000000)">
                        <path d="M18.4997453,2.50395921 C15.033975,2.50395921 12.2140591,5.32388778 12.2140591,8.7896735 C12.2140591,10.0802092 12.6061287,11.2803878 13.2755543,12.2798164 L2.90063635,22.6547806 C2.74702989,22.8083878 2.74702989,23.0566735 2.90063635,23.2102806 C2.97724315,23.2868878 3.07781413,23.3253878 3.17838511,23.3253878 C3.27895609,23.3253878 3.37952707,23.2868878 3.45613387,23.2102806 L5.14266206,21.5237449 L8.00775641,24.3888521 C8.08436321,24.4654592 8.18493419,24.5039592 8.28550517,24.5039592 C8.38607615,24.5039592 8.48664713,24.4654592 8.56325393,24.3888521 C8.71686039,24.2352449 8.71686039,23.9869592 8.56325393,23.8333521 L5.69815958,20.9682449 L7.106939,19.5594592 L9.18632258,21.6388521 C9.26292938,21.7154592 9.36350036,21.7539592 9.46407134,21.7539592 C9.56464232,21.7539592 9.66521329,21.7154592 9.7418201,21.6388521 C9.89542655,21.4852449 9.89542655,21.2369592 9.7418201,21.0833521 L7.66243652,19.0039592 L9.07121595,17.5951735 L11.9363103,20.4602806 C12.0129171,20.5368878 12.1134881,20.5753878 12.2140591,20.5753878 C12.31463,20.5753878 12.415201,20.5368878 12.4918078,20.4602806 C12.6454143,20.3066735 12.6454143,20.0583878 12.4918078,19.9047806 L9.62671347,17.0396735 L13.7603379,12.9060306 C14.9137613,14.2319235 16.6085394,15.0753878 18.4997453,15.0753878 C21.9655155,15.0753878 24.7854315,12.2554592 24.7854315,8.7896735 C24.7854315,5.32388778 21.9655155,2.50395921 18.4997453,2.50395921 Z M18.4997453,14.2896735 C15.4669017,14.2896735 12.9997698,11.8225306 12.9997698,8.7896735 C12.9997698,5.75681635 15.4669017,3.2896735 18.4997453,3.2896735 C21.5325889,3.2896735 23.9997207,5.75681635 23.9997207,8.7896735 C23.9997207,11.8225306 21.5325889,14.2896735 18.4997453,14.2896735 Z" id="Shape" stroke="#FFFFFF" fill="#F6F7FC" transform="translate(13.785432, 13.503959) rotate(-165.000000) translate(-13.785432, -13.503959) "></path>
                        <rect id="Rectangle" fill="#FFFFFF" transform="translate(28.842265, 11.315427) scale(1, -1) rotate(148.000000) translate(-28.842265, -11.315427) " x="25.342265" y="10.3154268" width="7" height="2" rx="1"></rect>
                        <rect id="Rectangle-Copy-7" fill="#FFFFFF" transform="translate(25.208471, 13.638728) scale(1, -1) rotate(118.000000) translate(-25.208471, -13.638728) " x="22.7084712" y="12.6387277" width="5" height="2" rx="1"></rect>
                    </g>
                </g>
            </g>
        </g>
    </g>
</svg>